<svg xmlns="http://www.w3.org/2000/svg" height="64" width="84" viewBox="0 0 100 80"><path d="M75.1 29.5H24.8c-2 0-3.6 1.4-3.6 3.3v33.5c0 1.8 1.6 3.2 3.6 3.2h50.3c2 0 3.6-1.4 3.6-3.2V32.7c0-1.8-1.6-3.2-3.6-3.2zm0 27l-7.2-5.9c-1.1-.9-2.8-.9-3.8.1l-7.3 6.6-14.3-15.4c-.9-1-2.6-1.2-3.8-.4-.2.1-.3.3-.4.4L24.8 55.8V32.7h50.3v23.8zm-10.5-9.6h0c2.9 0 5.1-2.3 5-5.1 0-2.8-2.3-5.1-5.1-5.1s-5.1 2.3-5.1 5.1c.1 2.8 2.5 5.1 5.2 5.1zm3.8-33.6H31.3c-.8 0-1.4-.6-1.4-1.4h0c0-.8.6-1.4 1.4-1.4h37.1c.8 0 1.4.6 1.4 1.4h0c.1.8-.6 1.4-1.4 1.4z" fill="#8796a1"/><path d="M78 19.2H22c-.4 0-.8-.4-.8-.8h0c0-.4.4-.8.8-.8h56c.4 0 .8.4.8.8h0c0 .5-.3.8-.8.8zm-3.8 4.5H25.8c-.4 0-.8-.4-.8-.8h0c0-.4.4-.8.8-.8h48.4c.4 0 .8.4.8.8h0c0 .4-.3.8-.8.8z" fill="#adb7bc"/></svg>