<svg xmlns="http://www.w3.org/2000/svg" height="64" width="84" viewBox="0 0 100 80"><path d="M90 23.8H53.6c-1.5 0-2.6 1.2-2.6 2.6v27.1c0 1.5 1.2 2.6 2.6 2.6H90c1.5 0 2.6-1.2 2.6-2.6V26.4c.1-1.4-1.1-2.6-2.6-2.6zm0 21.9l-5.2-4.8c-.8-.7-2-.7-2.8.1l-5.3 5.3-10.3-12.4c-.7-.8-1.9-1-2.7-.3l-.3.3-9.8 11.3V26.4H90v19.3zM82.5 37c2.1 0 3.7-1.7 3.7-3.7 0-2.1-1.7-3.7-3.7-3.7-2.1 0-3.7 1.7-3.7 3.7 0 2.1 1.7 3.7 3.7 3.7zM16 30h29.4c.8 0 1.4-.6 1.4-1.4h0c0-.8-.6-1.4-1.4-1.4H16c-.8 0-1.4.6-1.4 1.4h0c0 .8.6 1.4 1.4 1.4z" fill="#8796a1"/><path d="M8.1 35.9h38c.4 0 .8-.4.8-.8h0c0-.4-.4-.8-.8-.8h-38c-.4 0-.8.4-.8.8h0c0 .4.4.8.8.8zm0 4.1h38c.4 0 .8-.4.8-.8h0c0-.4-.4-.8-.8-.8h-38c-.4 0-.8.4-.8.8h0c0 .4.4.8.8.8zM24 44.1h22.1c.4 0 .8-.4.8-.8h0c0-.4-.4-.8-.8-.8H24c-.4 0-.8.4-.8.8h0c0 .4.3.8.8.8z" fill="#adb7bc"/></svg>