<svg xmlns="http://www.w3.org/2000/svg" height="64" width="84" viewBox="0 0 100 80"><path d="M46.4 23.8H10c-1.5 0-2.6 1.2-2.6 2.6v27.1c0 1.5 1.2 2.6 2.6 2.6h36.4c1.5 0 2.6-1.2 2.6-2.6V26.4a2.65 2.65 0 0 0-2.6-2.6zm0 21.9l-5.2-4.8c-.8-.7-2-.7-2.8.1l-5.3 5.3-10.3-12.4c-.7-.8-1.9-1-2.7-.3l-.3.3L10 45.1V26.4h36.4v19.3zM38.8 37c2.1 0 3.7-1.7 3.7-3.7 0-2.1-1.7-3.7-3.7-3.7-2.1 0-3.7 1.7-3.7 3.7 0 2.1 1.7 3.7 3.7 3.7zM84 30H54.6c-.8 0-1.4-.6-1.4-1.4h0c0-.8.6-1.4 1.4-1.4H84c.8 0 1.4.6 1.4 1.4h0c0 .8-.6 1.4-1.4 1.4z" fill="#8796a1"/><path d="M91.9 35.9h-38c-.4 0-.8-.4-.8-.8h0c0-.4.4-.8.8-.8h38c.4 0 .8.4.8.8h0c0 .4-.4.8-.8.8zm0 4.1h-38c-.4 0-.8-.4-.8-.8h0c0-.4.4-.8.8-.8h38c.4 0 .8.4.8.8h0c0 .4-.4.8-.8.8zM76 44.1H53.9c-.4 0-.8-.4-.8-.8h0c0-.4.4-.8.8-.8H76c.4 0 .8.4.8.8h0c0 .4-.3.8-.8.8z" fill="#adb7bc"/></svg>