<svg xmlns="http://www.w3.org/2000/svg" height="64" width="84" viewBox="0 0 100 80"><path d="M20 13.7h61.9c1.1 0 2 .9 2 2v48.6c0 1.1-.9 2-2 2H20c-1.1 0-2-.9-2-2V15.7c-.1-1.1.8-2 2-2z" fill="#8796a1" enable-background="new"/><path d="M65.8 26.8H36.1c-1.2 0-2.1.9-2.1 2.2v22.2c0 1.2.9 2.1 2.1 2.1h29.7c1.2 0 2.1-.9 2.1-2.1V28.9c0-1.1-.9-2.1-2.1-2.1zm0 17.8l-4.2-3.9c-.7-.6-1.7-.6-2.2.1L55 45.1 46.5 35c-.5-.7-1.5-.8-2.2-.2-.2.1-.2.2-.3.2l-7.9 9.2V28.9h29.7v15.7h0zm-6.2-7h0a3.01 3.01 0 0 0 3-3 3.01 3.01 0 0 0-3-3 3.08 3.08 0 0 0-3 3 3.01 3.01 0 0 0 3 3z" fill="#d9e3e8"/><circle cx="27.4" cy="23.2" r="6" fill="#29343a" enable-background="new"/><path d="M29 23.9a2.59 2.59 0 0 0-.4-3.2c-1-1-2.6-1-3.6 0a2.66 2.66 0 0 0 0 3.7 2.59 2.59 0 0 0 3.2.4l1.4 1.4c.3.3.6.3.9 0 .2-.2.2-.6 0-.9L29 23.9zm-.9-.1c-.7.7-1.9.7-2.6 0s-.7-1.8 0-2.6c.7-.7 1.9-.7 2.6 0 .7.8.7 1.9 0 2.6z" fill="#fff"/></svg>