<svg xmlns="http://www.w3.org/2000/svg" viewBox="0 0 212 110"><path d="M26 24h75c1.1 0 2 .9 2 2v58c0 1.1-.9 2-2 2H26c-1.1 0-2-.9-2-2V26c0-1.1.9-2 2-2zm85 0h75c1.1 0 2 .9 2 2v58c0 1.1-.9 2-2 2h-75c-1.1 0-2-.9-2-2V26c0-1.1.9-2 2-2z" fill="#d9e3e8"/><path d="M2 .5h208a1.54 1.54 0 0 1 1.5 1.5v106a1.54 1.54 0 0 1-1.5 1.5H2A1.54 1.54 0 0 1 .5 108V2A1.54 1.54 0 0 1 2 .5z" fill="none" stroke="#adb7bc"/><path d="M172.3 47H188v15.7h-15.7z" fill="#8796a1"/><path d="M178.2 58.8l3.9-3.9-3.9-3.9" fill="none" stroke="#fff" stroke-width="2" stroke-linecap="round" stroke-linejoin="round"/><path d="M24 47h15.7v15.7H24z" fill="#8796a1"/><path d="M33.8,50.9l-3.9,3.9l3.9,3.9" fill="none" stroke="#fff" stroke-width="2" stroke-linecap="round" stroke-linejoin="round"/></svg>