<svg width="160" height="42" viewBox="0 0 210 42" fill="none" xmlns="http://www.w3.org/2000/svg">
<path d="M38.3934 24.1697L32.558 16.9522L36.0899 14.0344L41.9254 21.252L38.3934 24.1697Z" fill="#157592"/>
<path d="M36.0899 28.6234L32.558 25.7057L38.3934 18.4881L41.9254 21.406L36.0899 28.6234Z" fill="#157592"/>
<path d="M14.1282 24.1697L10.5962 21.252L16.4317 14.0344L19.9636 16.9522L14.1282 24.1697Z" fill="#157592"/>
<path d="M16.4317 28.6234L10.5962 21.406L14.1282 18.4881L19.9636 25.7057L16.4317 28.6234Z" fill="#157592"/>
<path d="M52.5194 41.8301H0V0.828094H52.5194V41.8301ZM5.98906 35.8411H46.6839V6.81715H5.98906V35.8411Z" fill="#157592"/>
<path d="M90.6053 8.35276L85.9983 35.2267C85.2305 35.2267 84.6162 35.3802 84.1555 35.3802H82.3128C82.0274 35.3956 81.7424 35.3486 81.4771 35.2425C81.2119 35.1365 80.9731 34.9738 80.777 34.766C80.3414 34.2432 80.0737 33.6009 80.0093 32.9232L79.2414 28.7769C78.9342 26.9342 78.4735 23.5558 78.0128 18.9488C77.5521 23.7093 77.0914 26.9342 76.7844 28.7769L75.7093 35.2267C74.3827 35.3575 73.0494 35.4087 71.7167 35.3802C71.4543 35.3935 71.1925 35.3449 70.9523 35.2381C70.7122 35.1314 70.5006 34.9696 70.3346 34.766C69.9274 34.2847 69.6616 33.7001 69.5668 33.0767C69.1061 30.4662 68.3382 26.3199 67.4168 20.7916C66.4954 15.2632 65.8812 11.4241 65.574 9.58127V9.12057C65.574 8.96701 65.574 8.65988 65.7277 8.65988C65.9578 8.52058 66.2295 8.46626 66.4954 8.50632H70.0275L71.8703 21.0986C72.4478 24.3987 72.8069 27.7332 72.9452 31.0804H73.2523C73.4059 28.0091 73.713 24.6307 74.1737 21.0986L75.863 10.8098C75.843 10.4746 75.9531 10.1446 76.17 9.88841C76.2645 9.77996 76.3834 9.69554 76.5169 9.64213C76.6504 9.58871 76.7948 9.56786 76.9379 9.58127H80.0093L82.0056 21.0986C82.5322 24.4056 82.8909 27.7372 83.0805 31.0804H83.3877C83.5412 27.8556 83.8484 24.4772 84.3091 21.0986L85.9983 9.58127C85.9783 9.24607 86.0884 8.91608 86.3054 8.65988C86.3998 8.55143 86.5187 8.46701 86.6522 8.4136C86.7858 8.3602 86.9302 8.33933 87.0732 8.35276H90.6053Z" fill="#283F4D"/>
<path d="M102.889 9.12086C103.945 9.58821 104.811 10.4004 105.346 11.4244C106.02 12.9176 106.335 14.5479 106.267 16.1849C106.267 19.4098 105.653 21.5596 104.271 22.9417C102.83 24.2014 100.962 24.861 99.0496 24.7845H98.7424V34.4591C98.7424 34.7663 98.7424 34.9198 98.5889 35.0735C98.4353 35.227 97.9746 35.227 97.3603 35.227H94.5962V9.12086C94.5962 8.81374 94.5962 8.66017 94.7497 8.50661C94.9033 8.35305 95.0569 8.35305 95.364 8.35305H99.0496C100.367 8.35506 101.672 8.61594 102.889 9.12086ZM100.892 19.8705C101.274 18.5234 101.43 17.1222 101.353 15.7242C101.405 14.7801 101.248 13.8362 100.892 12.96C100.775 12.6901 100.582 12.4597 100.337 12.2963C100.092 12.133 99.8047 12.0435 99.5103 12.0386H98.4353V20.9454H99.2031C99.5633 20.9748 99.9234 20.8856 100.228 20.6917C100.533 20.4976 100.766 20.2092 100.892 19.8705Z" fill="#283F4D"/>
<path d="M116.71 34.6131C115.653 33.5781 114.954 32.2334 114.713 30.774C114.143 28.0999 113.886 25.3686 113.946 22.635C113.946 12.8068 116.556 7.89268 121.624 7.89268C123.16 7.89268 124.081 8.04625 124.542 8.50694C124.785 8.71541 124.98 8.97465 125.113 9.26648C125.245 9.55829 125.313 9.87562 125.309 10.1962C125.31 11.1022 125.099 11.9959 124.695 12.8068C124.122 12.3751 123.416 12.1578 122.699 12.1925C122.039 12.2335 121.403 12.4559 120.861 12.8352C120.319 13.2145 119.892 13.7361 119.628 14.3424C118.637 16.8818 118.217 19.6081 118.399 22.3278C118.396 24.0728 118.499 25.8164 118.706 27.5491C118.738 28.4931 119.06 29.4045 119.628 30.1596C119.867 30.4051 120.154 30.5996 120.471 30.7315C120.787 30.8635 121.127 30.9301 121.47 30.9275C122.482 31.0144 123.497 30.8006 124.388 30.3133C124.754 31.0835 124.962 31.9187 125.002 32.7703C124.989 33.2017 124.87 33.6233 124.656 33.9981C124.442 34.3729 124.139 34.6895 123.774 34.9203C122.732 35.4607 121.569 35.7252 120.395 35.688C119.087 35.7055 117.804 35.3311 116.71 34.6131Z" fill="#283F4D"/>
<path d="M129.456 35.2273C128.673 34.8817 128.025 34.2881 127.613 33.5382C127.06 32.3361 126.797 31.0212 126.845 29.6989C126.687 27.9691 127.12 26.2368 128.074 24.7849C128.469 24.3223 128.965 23.9571 129.525 23.7174C130.084 23.4777 130.691 23.3701 131.299 23.4028C131.714 23.3869 132.129 23.4388 132.527 23.5564C132.946 23.6844 133.356 23.8382 133.756 24.017V21.4064C133.77 21.0246 133.663 20.6481 133.448 20.3315C133.074 20.12 132.65 20.0139 132.22 20.0243C131.444 20.0511 130.672 20.1539 129.916 20.3315C129.123 20.4245 128.347 20.6313 127.613 20.9457C127.247 20.1755 127.039 19.3403 126.999 18.4887C126.975 18.2234 127.028 17.9567 127.152 17.7208C127.306 17.4138 127.306 17.2601 127.459 17.1066C128.079 16.7451 128.753 16.4859 129.456 16.3387C130.665 16.0718 131.905 15.9684 133.141 16.0317C133.797 15.9352 134.465 15.9814 135.101 16.167C135.737 16.3525 136.326 16.673 136.827 17.1066C137.249 17.6147 137.562 18.2038 137.747 18.8379C137.932 19.4718 137.985 20.137 137.902 20.7922V22.635C137.902 28.9312 137.902 32.9238 137.748 34.9202C136.039 35.791 134.137 36.2137 132.22 36.1487C131.145 35.688 130.224 35.5345 129.456 35.2273ZM133.602 31.6954V26.7812C133.276 26.5892 132.906 26.4835 132.527 26.474C132.308 26.4635 132.09 26.5158 131.9 26.6245C131.71 26.7333 131.554 26.8943 131.452 27.0884C131.143 27.8682 131.037 28.7137 131.145 29.5454C131.119 30.2244 131.223 30.902 131.452 31.5417C131.606 32.0024 131.913 32.1561 132.527 32.1561C133.141 32.1561 133.448 32.0024 133.602 31.6954Z" fill="#283F4D"/>
<path d="M140.665 17.4135C142.227 16.2837 144.113 15.6911 146.04 15.7244C146.739 15.6286 147.449 15.7926 148.037 16.1851C148.212 16.3967 148.344 16.6419 148.424 16.9057C148.503 17.1696 148.528 17.4468 148.497 17.7207C148.493 18.5608 148.337 19.3933 148.037 20.1777C147.595 20.0029 147.129 19.8992 146.654 19.8706C146.34 19.8463 146.022 19.899 145.733 20.0242C145.458 20.1428 145.2 20.2977 144.965 20.4849V34.6129C144.965 34.92 144.965 35.0736 144.811 35.2271C144.658 35.3807 144.197 35.3807 143.583 35.3807H140.665V17.4135Z" fill="#283F4D"/>
<path d="M151.878 34.9201C151.375 34.5977 150.951 34.1695 150.632 33.6653C150.314 33.1613 150.109 32.5937 150.034 32.0024C149.521 29.8931 149.314 27.7209 149.42 25.5527C149.42 18.9492 151.569 15.5708 155.869 15.5708C157.066 15.5026 158.252 15.826 159.248 16.4922C159.735 16.8303 160.149 17.2627 160.466 17.764C160.783 18.2652 160.995 18.825 161.092 19.4099C161.591 21.365 161.798 23.3833 161.706 25.399C161.706 29.0846 161.245 31.5417 160.169 33.2308C159.642 33.9926 158.927 34.605 158.092 35.0086C157.258 35.4122 156.334 35.5934 155.409 35.5343C154.196 35.6854 152.967 35.4715 151.878 34.9201ZM156.331 31.6952C156.56 31.1024 156.715 30.4835 156.792 29.8524C156.938 28.4756 156.99 27.0901 156.945 25.7062C156.99 24.3222 156.938 22.9368 156.792 21.5599C156.869 20.9099 156.705 20.2541 156.331 19.7171C156.24 19.5572 156.104 19.428 155.94 19.3459C155.777 19.2638 155.591 19.2327 155.409 19.2564C154.948 19.2564 154.488 19.7171 154.334 20.6385C153.949 22.2985 153.794 24.0037 153.874 25.7062C153.826 27.1413 153.876 28.578 154.027 30.006C154.104 30.637 154.259 31.256 154.488 31.8487C154.577 32.0086 154.714 32.1378 154.879 32.2199C155.042 32.3021 155.228 32.3332 155.409 32.3094C155.596 32.2744 155.774 32.202 155.933 32.0964C156.091 31.9908 156.227 31.8544 156.331 31.6952Z" fill="#283F4D"/>
<path d="M165.235 34.1516C164.355 32.8967 163.922 31.3823 164.006 29.8517V16.7987C164.006 16.4915 164.006 16.338 164.161 16.1845C164.314 16.0308 164.775 16.0308 165.389 16.0308H168.306V30.0054C168.3 30.4836 168.404 30.9569 168.613 31.3875C168.768 31.6945 169.075 31.8482 169.689 31.8482C170.236 31.8605 170.773 31.6991 171.224 31.3875V16.6452C171.224 16.338 171.224 16.1845 171.377 16.0308C171.531 15.8773 171.838 15.8773 172.606 15.8773H175.524V33.998C174.707 34.4748 173.829 34.8365 172.913 35.073C171.918 35.3759 170.882 35.5311 169.842 35.5337C169.02 35.65 168.182 35.5867 167.387 35.3481C166.591 35.1095 165.857 34.7013 165.235 34.1516Z" fill="#283F4D"/>
<path d="M177.829 33.3844C177.874 32.5616 178.139 31.7662 178.597 31.0809C179.631 31.6408 180.8 31.9064 181.976 31.8486C182.526 31.8852 183.072 31.7217 183.511 31.3879C183.818 31.0536 183.983 30.6132 183.972 30.1595C183.96 29.3493 183.628 28.5765 183.05 28.0095L179.672 24.4775C179.072 23.8605 178.603 23.1294 178.29 22.3276C178.008 21.6985 177.851 21.0203 177.829 20.3312C177.787 19.6631 177.906 18.9946 178.173 18.3806C178.439 17.7669 178.848 17.2248 179.365 16.7993C180.803 15.8133 182.546 15.3774 184.279 15.5707C185.605 15.4664 186.933 15.7322 188.118 16.3386C188.395 16.5274 188.622 16.779 188.781 17.0726C188.942 17.3661 189.03 17.6934 189.039 18.0277C189.052 18.3924 189 18.7563 188.886 19.1028C188.732 19.4098 188.579 19.8705 188.272 20.0241C187.237 19.4641 186.069 19.1985 184.893 19.2563C183.665 19.2563 183.05 19.717 183.05 20.4848C183.032 20.6284 183.049 20.7744 183.104 20.9089C183.158 21.0433 183.245 21.1616 183.358 21.2526C183.611 21.6536 183.921 22.0158 184.279 22.3276L187.043 25.2453C187.643 25.9503 188.159 26.7234 188.579 27.5488C188.907 28.3251 189.065 29.1632 189.039 30.0058C189.07 30.7547 188.933 31.501 188.642 32.1913C188.35 32.8817 187.908 33.4988 187.35 33.9986C186.038 35.0271 184.41 35.5698 182.743 35.5342C179.365 35.6878 177.829 34.92 177.829 33.3844Z" fill="#283F4D"/>
<path d="M201.478 30.4668C201.683 31.4261 201.785 32.404 201.785 33.3846C201.785 34.1524 201.325 34.7667 200.25 35.0738C199.025 35.5384 197.719 35.7474 196.411 35.6881C195.564 35.734 194.716 35.5769 193.942 35.2297C193.168 34.8825 192.487 34.3551 191.957 33.6917C190.883 32.3096 190.422 30.0061 190.422 26.6277C190.325 24.3386 190.637 22.0503 191.343 19.8708C191.727 18.5678 192.538 17.4319 193.646 16.6459C194.725 16.0528 195.952 15.7861 197.178 15.8782C200.404 15.8782 202.092 18.028 202.092 22.1743C202.118 24.0276 201.965 25.8791 201.632 27.7026C199.451 28.0615 197.239 28.2157 195.029 28.1633C194.973 29.1238 195.186 30.0808 195.643 30.9275C195.95 31.5419 196.564 31.6954 197.485 31.6954C198.869 31.4773 200.213 31.0636 201.478 30.4668ZM195.336 20.6387C194.963 21.9349 194.806 23.2841 194.876 24.6314C195.858 24.6604 196.838 24.557 197.792 24.3242C197.949 23.6711 198.001 22.9972 197.946 22.3279C197.992 21.5474 197.888 20.7657 197.639 20.0244C197.542 19.8265 197.387 19.6621 197.196 19.5527C197.005 19.4433 196.784 19.3936 196.564 19.4101C196.104 19.4101 195.643 19.7173 195.336 20.6387Z" fill="#283F4D"/>
<path d="M204.55 8.96688C204.543 8.48856 204.649 8.01529 204.857 7.58479C204.992 7.43491 205.158 7.31611 205.344 7.23658C205.529 7.15706 205.729 7.11868 205.932 7.1241C206.392 7.1241 207.313 6.97054 208.695 6.97054V34.4588C208.695 34.7659 208.695 34.9195 208.542 35.073C208.388 35.2266 208.081 35.2266 207.313 35.2266H204.55V8.96688Z" fill="#283F4D"/>
</svg>
