<svg width="191" height="88" viewBox="0 0 191 88" fill="none" xmlns="http://www.w3.org/2000/svg">
<path d="M38.0818 86.3485C36.3596 87.7711 33.8061 87.5077 32.4107 85.7634L0.998996 46.4987C-0.169691 45.0379 -0.169704 42.9621 0.998965 41.5012L32.4107 2.23551C33.8061 0.491212 36.3597 0.227779 38.0818 1.65046L53.6556 14.5164C55.3461 15.9129 55.5971 18.41 54.2185 20.1151L36.941 41.4846C35.755 42.9515 35.755 45.0475 36.9409 46.5144L54.2185 67.8844C55.5971 69.5895 55.346 72.0866 53.6555 73.4831L38.0818 86.3485Z" fill="#E8F7FA"/>
<path d="M152.918 1.65046C154.64 0.227776 157.194 0.491211 158.589 2.23551L190.001 41.5012C191.17 42.9621 191.17 45.0379 190.001 46.4987L158.589 85.7634C157.194 87.5077 154.64 87.7711 152.918 86.3485L137.344 73.4831C135.654 72.0866 135.403 69.5895 136.781 67.8844L154.059 46.5144C155.245 45.0475 155.245 42.9515 154.059 41.4846L136.781 20.1151C135.403 18.41 135.654 15.9129 137.344 14.5164L152.918 1.65046Z" fill="#E8F7FA"/>
</svg>
