<svg xmlns="http://www.w3.org/2000/svg" width='50' height='48' viewBox="0 0 80 80"><path d="M19.4 67.3v-7.8h2.3c.7 0 1.3.2 1.8.5a3.04 3.04 0 0 1 1.2 1.3c.3.6.4 1.2.4 1.9v.4c0 .7-.1 1.4-.4 2s-.7 1-1.3 1.3c-.5.3-1.2.5-1.9.5h-2.1v-.1zm1.3-6.7v5.6h.9c.7 0 1.3-.2 1.6-.7.4-.4.6-1.1.6-1.9v-.4c0-.8-.2-1.5-.6-1.9s-.9-.7-1.6-.7h-.9zm5.8-.6c0-.2.1-.4.2-.5s.3-.2.5-.2.4.1.5.2.2.3.2.5-.1.4-.2.5-.3.2-.5.2-.4-.1-.5-.2-.2-.3-.2-.5zm1.4 7.3h-1.3v-5.8h1.3v5.8zm4.8-1.6a.55.55 0 0 0-.3-.5c-.2-.1-.5-.2-1-.3-.4-.1-.8-.2-1.1-.4-.7-.3-1-.8-1-1.4 0-.5.2-.9.6-1.3s1-.5 1.6-.5c.7 0 1.3.2 1.7.5s.6.8.6 1.3h-1.3c0-.2-.1-.5-.3-.6-.2-.2-.4-.2-.7-.2s-.5.1-.7.2a.55.55 0 0 0-.3.5.55.55 0 0 0 .3.5c.2.1.5.2 1 .3s.9.2 1.2.4.5.3.7.6c.1.2.2.5.2.8 0 .5-.2.9-.6 1.3s-1 .5-1.7.5c-.5 0-.9-.1-1.3-.3s-.7-.4-.9-.7a1.69 1.69 0 0 1-.3-1h1.3c0 .3.1.5.3.7s.5.2.9.2c.3 0 .6-.1.8-.2s.3-.2.3-.4zm6 1.6c-.1-.1-.1-.3-.2-.5-.4.4-.9.7-1.5.7s-1.1-.2-1.4-.5c-.4-.3-.6-.7-.6-1.2 0-.6.2-1.1.7-1.4s1.1-.5 2-.5h.8v-.4c0-.3-.1-.5-.3-.7s-.4-.3-.8-.3c-.3 0-.5.1-.7.2s-.3.3-.3.6h-1.3c0-.3.1-.6.3-.9s.5-.5.9-.7.8-.2 1.2-.2c.7 0 1.2.2 1.6.5s.6.8.6 1.4V66c0 .5.1.9.2 1.3v.1l-1.2-.1h0zm-1.4-.9c.3 0 .5-.1.7-.2s.4-.3.5-.5v-1.1h-.7c-.5 0-.8.1-1.1.3-.2.2-.4.4-.4.7s.1.5.2.6c.3.1.5.2.8.2zm9.1-1.9c0 .9-.2 1.6-.6 2.2-.4.5-1 .8-1.7.8s-1.2-.2-1.6-.7l-.1.6h-1.2v-8.2h1.3v3c.4-.4.9-.7 1.5-.7.7 0 1.3.3 1.7.8.5.4.7 1.1.7 2.2h0zm-1.3-.1c0-.6-.1-1.1-.3-1.4s-.5-.5-1-.5c-.6 0-1 .2-1.2.7v2.4c.2.5.6.8 1.2.8.4 0 .7-.2.9-.5s.3-.8.4-1.5h0 0zm3.9 2.9h-1.3v-8.2H49v8.2zm4.1.1c-.8 0-1.5-.3-2-.8s-.8-1.2-.8-2.1v-.2c0-.6.1-1.1.3-1.6s.5-.8.9-1.1.9-.4 1.4-.4c.8 0 1.4.3 1.8.8s.6 1.2.6 2.1v.5h-3.8c0 .5.2.9.5 1.1s.6.4 1.1.4c.6 0 1.1-.2 1.5-.7l.7.7a2.36 2.36 0 0 1-.9.8c-.4.2-.8.5-1.3.5zm-.2-5c-.4 0-.6.1-.9.4-.2.3-.4.6-.4 1h2.5v-.1c0-.4-.1-.8-.3-1s-.5-.3-.9-.3zm3.4 2c0-.9.2-1.6.6-2.2.4-.5 1-.8 1.7-.8.6 0 1.1.2 1.5.6v-3h1.3v8.2h-1.2l-.1-.6c-.4.5-.9.7-1.6.7s-1.2-.3-1.7-.8c-.3-.4-.5-1.2-.5-2.1zm1.3.1c0 .6.1 1.1.3 1.4s.6.5 1 .5c.5 0 .9-.2 1.2-.7v-2.5c-.2-.5-.6-.7-1.2-.7-.4 0-.7.2-1 .5s-.3.8-.3 1.5z" fill="#63666a"/><path d="M40 12.6c-11.3 0-20.5 9.2-20.5 20.5S28.7 53.7 40 53.7s20.5-9.2 20.5-20.5S51.3 12.6 40 12.6zM23.8 33.1c0-3.7 1.3-7.1 3.3-9.8L49.8 46c-2.7 2.1-6.1 3.3-9.8 3.3a16.13 16.13 0 0 1-16.2-16.2h0zm29.1 9.8L30.2 20.2c2.7-2.1 6.1-3.3 9.8-3.3a16.2 16.2 0 0 1 16.2 16.2c0 3.7-1.2 7.1-3.3 9.8h0z" fill="#8796a1"/></svg>