<svg xmlns="http://www.w3.org/2000/svg" width='50' height='48' viewBox="0 0 80 80"><path d="M20.1 65.9h3.6V67h-4.9v-7.8h1.4v6.7h-.1zm4.6-6.3c0-.2.1-.4.2-.5s.3-.2.5-.2.4.1.5.2.2.3.2.5-.1.4-.2.5-.3.2-.5.2-.4-.1-.5-.2-.2-.3-.2-.5zm1.4 7.4h-1.3v-5.8h1.3V67zm1.3-3c0-.9.2-1.6.6-2.2.4-.5 1-.8 1.7-.8s1.2.2 1.6.7l.1-.6h1.2v5.6c0 .8-.2 1.4-.7 1.8s-1.1.7-1.9.7c-.4 0-.8-.1-1.2-.3s-.7-.4-.9-.7l.6-.8c.4.5.9.7 1.5.7.4 0 .8-.1 1-.4s.4-.6.4-1v-.4c-.4.4-.9.6-1.5.6-.7 0-1.2-.3-1.7-.8-.6-.4-.8-1.1-.8-2.1zm1.3.1c0 .6.1 1 .4 1.4.2.3.6.5 1 .5.5 0 .9-.2 1.2-.7v-2.6c-.2-.4-.6-.7-1.2-.7-.4 0-.8.2-1 .5-.3.5-.4 1-.4 1.6zm6.6-2.3c.4-.5 1-.7 1.6-.7 1.2 0 1.9.7 1.9 2.1V67h-1.3v-3.7c0-.4-.1-.7-.3-.9s-.4-.2-.8-.2c-.5 0-.9.2-1.2.7V67H34v-8.2h1.3v3zm6.5-2.1v1.4h1v1h-1v3.2c0 .2 0 .4.1.5s.2.1.5.1c.2 0 .3 0 .5-.1v1c-.3.1-.6.1-.9.1-1 0-1.5-.6-1.5-1.7v-3.3h-1v-1h1v-1.4h1.3v.2zm7.3 4.4c0 .9-.2 1.6-.6 2.2-.4.5-1 .8-1.7.8s-1.2-.2-1.6-.7l-.1.6H44v-8.2h1.3v3c.4-.4.9-.7 1.5-.7.7 0 1.3.3 1.7.8s.6 1.2.6 2.2h0zm-1.3-.1c0-.6-.1-1.1-.3-1.4s-.5-.5-1-.5c-.6 0-1 .2-1.2.7v2.4c.2.5.6.8 1.2.8.4 0 .7-.2.9-.5s.3-.8.4-1.5h0 0zm2.2 0c0-.6.1-1.1.3-1.5.2-.5.5-.8 1-1.1s.9-.4 1.4-.4c.8 0 1.4.3 1.9.8s.8 1.2.8 2v.3c0 .6-.1 1.1-.3 1.5-.2.5-.5.8-.9 1s-.9.4-1.4.4c-.8 0-1.5-.3-2-.8S50 65 50 64h0zm1.3.1c0 .6.1 1.1.4 1.4.2.3.6.5 1 .5s.8-.2 1-.5.4-.8.4-1.5c0-.6-.1-1.1-.4-1.4s-.6-.5-1-.5-.8.2-1 .5c-.3.3-.4.8-.4 1.5zm7.3-1l1.1-1.9h1.5L59.4 64l1.8 2.9h-1.4l-1.2-2-1.2 2H56l1.8-2.9-1.8-2.9h1.4l1.2 2z" fill="#62666a"/><path d="M21.5 50.1V32.8h-2.7v20.3h20.1v-3H23.7zm9-7.4h21.3c.9 0 1.7-.8 1.7-1.7v-9.1c0-.4-.2-.9-.5-1.2l-2.8-2.9c-.6-.6-1.6-.7-2.2-.2l-4.6 3.5c-.4.3-1 .4-1.5.3l-5.3-1.7c-.6-.1-1.2 0-1.6.3l-5.6 4.5c-.4.3-.6.8-.6 1.3V41c0 1 .8 1.7 1.7 1.7zm7.2-19.8c0-1.5-1.3-2.8-2.8-2.8s-2.8 1.3-2.8 2.8c0 1.6 1.3 2.8 2.8 2.8s2.8-1.3 2.8-2.8zm18.2 22.5H26.3V16h19.9c.1-.9.4-1.8.8-2.6H23.7V48h34.8V25c-.8.4-1.7.7-2.6.8v19.6zm-1.2-34.6a6.49 6.49 0 0 0-6.5 6.5 6.5 6.5 0 1 0 13 0 6.49 6.49 0 0 0-6.5-6.5zm2.3 9.8l-2.3-2-2 2.3-1.3-1.2 2-2.3-2.2-2 1.2-1.3 2.2 2 2-2.3L58 15l-2.1 2.3 2.3 2-1.2 1.3z" fill="#8796a1"/></svg>