<svg xmlns="http://www.w3.org/2000/svg" width='50' height='48' viewBox="0 0 80 80"><path d="M47.5 13.1c-2.9 0-5.9 1.1-8.1 3.3l-4.3 4.3c-1 1-1 2.6 0 3.6s2.6 1 3.6 0L43 20c2.5-2.5 6.5-2.5 9 0s2.5 6.5 0 9l-4.3 4.3c-1 1-1 2.6 0 3.6s2.6 1 3.6 0l4.3-4.3c4.4-4.4 4.4-11.7 0-16.2-2.1-2.2-5.1-3.3-8.1-3.3h0zM30.4 26.6c-.7 0-1.3.3-1.7.8l-4.3 4.3c-4.4 4.4-4.4 11.7 0 16.2 4.4 4.4 11.7 4.4 16.2 0l4.3-4.3c1-1 1-2.6 0-3.6s-2.6-1-3.6 0L37 44.2c-2.5 2.5-6.5 2.5-9 0s-2.5-6.5 0-9l4.3-4.3c1.5-1.6.4-4.4-1.9-4.3h0zm15.8-3.3c-.7 0-1.3.3-1.7.8L32 36.5c-1 1-1 2.6 0 3.6s2.6 1 3.6 0L48 27.7c1.5-1.6.5-4.4-1.8-4.4h0z" fill="#8796a1"/><path d="M36.5 59v5.2c0 .8-.3 1.5-.8 2s-1.2.7-2.1.7-1.6-.2-2.1-.7-.8-1.1-.8-2V59H32v5.2c0 .5.1.9.4 1.2s.7.4 1.2.4c1 0 1.6-.6 1.6-1.7V59h1.3zm4.4 4.8h-1.5v3H38V59h2.8c.9 0 1.6.2 2.1.6s.7 1 .7 1.8c0 .5-.1 1-.4 1.3-.3.4-.6.6-1.1.8l1.8 3.3v.1h-1.5l-1.5-3.1zm-1.5-1.1h1.4c.5 0 .8-.1 1.1-.3s.4-.5.4-.9-.1-.7-.4-1c-.2-.2-.6-.3-1.1-.4h-1.4v2.6zm6.8 3h3.6v1.1H45V59h1.4v6.7h-.2z" fill="#63666a"/></svg>