<svg xmlns="http://www.w3.org/2000/svg" width='240' height='200' viewBox="0 0 250 126"><path d="M83 17.2H24.9c-1.1 0-2 .9-2 2v53.2c0 1.1.9 2 2 2H83c1.1 0 2-.9 2-2V19.2c0-1.1-.9-2-2-2zm74.9 0h-58c-1.1 0-2 .9-2 2v53.2c0 1.1.9 2 2 2H158c1.1 0 2-.9 2-2V19.2c-.1-1.1-1-2-2.1-2zm75 0h-58.1c-1.1 0-2 .9-2 2v53.2c0 1.1.9 2 2 2h58.1c1.1 0 2-.9 2-2V19.2c0-1.1-.9-2-2-2z" fill="#8796a1"/><path d="M106.7 105.6c.3-.5.8-.7 1.5-.7.6 0 1 .1 1.3.4s.5.7.5 1.3h1.5c-.1-.9-.4-1.7-1-2.2s-1.3-.8-2.3-.8c-.7 0-1.3.2-1.8.5s-.9.8-1.2 1.4-.4 1.3-.4 2.1v.8c0 .8.2 1.5.4 2.1s.7 1.1 1.2 1.4 1.1.5 1.8.5c1 0 1.8-.3 2.3-.8a3.47 3.47 0 0 0 1-2.1H110c-.1.6-.3 1-.6 1.3s-.7.4-1.3.4-1.1-.2-1.5-.7c-.3-.5-.5-1.2-.5-2.1v-.8c.1-.9.2-1.5.6-2zm10.7 1.1c-.5-.6-1.2-.8-2.1-.8-.6 0-1.1.1-1.5.4s-.8.7-1 1.1-.4 1.1-.4 1.7v.1c0 1 .3 1.8.8 2.4s1.3.9 2.1.9c.6 0 1.1-.1 1.5-.4s.8-.7 1-1.1.4-1.1.4-1.7v-.3c0-1-.3-1.8-.8-2.3zm-1 4c-.3.4-.6.6-1.1.6s-.9-.2-1.1-.6-.4-.9-.4-1.5c0-.7.1-1.3.4-1.7s.6-.6 1.1-.6.8.2 1.1.6.4.9.4 1.5c0 .8-.1 1.4-.4 1.7zm3.2-7.4h1.4v9h-1.4zm6.7 7.2c-.2.5-.7.7-1.4.7s-1-.4-1-1.2v-4h-1.4v4.1c0 .8.2 1.3.5 1.7s.9.6 1.6.6c.8 0 1.4-.2 1.8-.7v.6h1.3V106h-1.4v4.5zm9.8-4.6c-.8 0-1.5.3-1.9 1-.3-.6-.9-1-1.7-1s-1.4.3-1.8.8v-.7h-1.3v6.3h1.4v-4.6c.2-.5.6-.7 1.2-.7.7 0 1.1.4 1.1 1.1v4.2h1.4V108c.1-.3.2-.5.4-.7s.5-.3.8-.3c.4 0 .7.1.9.3s.3.5.3.9v4.1h1.4v-4.2c0-.8-.2-1.3-.5-1.7s-1-.5-1.7-.5zm6.8 0c-.8 0-1.4.3-1.8.8v-.7h-1.3v6.3h1.4v-4.5c.3-.5.7-.8 1.3-.8.4 0 .7.1.9.3s.3.5.3.9v4.1h1.4v-4.2c-.3-1.5-.9-2.2-2.2-2.2zm5.3-.4c.3-.9.8-1.5 1.3-1.9l-.3-.8c-.5.3-1 .7-1.5 1.3s-.8 1.4-1.1 2.2-.4 1.7-.4 2.6c0 1 .1 1.9.4 2.7s.6 1.5 1.1 2.2 1 1.1 1.5 1.4l.3-.8c-.6-.5-1.1-1.2-1.4-2.1s-.5-2-.5-3.2v-.5c.1-1.2.3-2.2.6-3.1zm6.3 3.5c-.3-.2-.8-.3-1.3-.4s-.9-.2-1.1-.4-.3-.3-.3-.5.1-.4.3-.6.5-.2.8-.2.6.1.8.3.3.4.3.7h1.4c0-.6-.2-1.1-.7-1.5s-1.1-.6-1.8-.6-1.3.2-1.8.6-.7.8-.7 1.4c0 .7.4 1.2 1.1 1.5.3.2.7.3 1.2.4s.8.2 1 .4.3.3.3.6c0 .2-.1.4-.3.6s-.5.2-.9.2-.7-.1-.9-.3-.4-.4-.4-.8h-1.4c0 .4.1.7.3 1.1s.5.6.9.8.9.3 1.4.3c.8 0 1.4-.2 1.9-.5s.7-.8.7-1.4c0-.3-.1-.6-.2-.9s-.3-.6-.6-.8zm4.9-.5c0-.8-.2-1.6-.4-2.4s-.6-1.5-1.1-2.1-1-1-1.5-1.3l-.3.8.2.2c.6.5 1 1.3 1.3 2.1s.4 1.9.4 3v.1c0 1.2-.2 2.3-.5 3.2s-.8 1.6-1.4 2.1l.3.8c.5-.3 1-.7 1.5-1.4s.8-1.4 1.1-2.2.4-1.6.4-2.5v-.4z" fill="#231f20"/><path d="M119.6 37.7a2.7 2.7 0 1 0 0 5.4 2.7 2.7 0 1 0 0-5.4zm26.6-5.2h-34.5c-1 0-1.7.8-1.7 1.7v23.2c0 .5.2.9.5 1.2v.1h.1c.3.3.7.5 1.2.5h34.5c.5 0 .9-.2 1.2-.5h.1v-.1c.3-.3.5-.7.5-1.2V34.2c-.2-.9-1-1.7-1.9-1.7zm.7 23.2l-10.6-15a2.25 2.25 0 0 0-3.6 0l-7.5 10.5 5.6 5.6c.2.2.2.5 0 .7-.1.1-.2.1-.3.1s-.2 0-.3-.1l-9-9c-.9-.9-2.3-.9-3.1 0l-7.3 7.4V34.2c0-.4.3-.8.8-.8h34.5c.4 0 .8.3.8.8v21.5zm-102.2-18a2.7 2.7 0 1 0 0 5.4 2.69 2.69 0 0 0 2.7-2.7c0-1.5-1.3-2.7-2.7-2.7zm26.5-5.2H36.7c-1 0-1.7.8-1.7 1.7v23.2c0 .5.2.9.5 1.2v.1h.1c.3.3.7.5 1.2.5h34.5c.5 0 .9-.2 1.2-.5h.1v-.1c.3-.3.5-.7.5-1.2V34.2c-.1-.9-.9-1.7-1.9-1.7zm.8 23.2l-10.6-15a2.25 2.25 0 0 0-3.6 0l-7.5 10.5 5.6 5.6c.2.2.2.5 0 .7-.1.1-.2.1-.3.1s-.2 0-.3-.1l-9-9c-.9-.9-2.3-.9-3.1 0L35.9 56V34.2c0-.4.3-.8.8-.8h34.5c.4 0 .8.3.8.8v21.5zm122.5-18a2.7 2.7 0 1 0 0 5.4 2.7 2.7 0 1 0 0-5.4zm26.6-5.2h-34.5c-1 0-1.7.8-1.7 1.7v23.2c0 .5.2.9.5 1.2v.1h.1c.3.3.7.5 1.2.5h34.5c.5 0 .9-.2 1.2-.5h.1v-.1c.3-.3.5-.7.5-1.2V34.2c-.1-.9-.9-1.7-1.9-1.7zm.8 23.2l-10.6-15a2.25 2.25 0 0 0-3.6 0l-7.5 10.5 5.6 5.6c.2.2.2.5 0 .7-.1.1-.2.1-.3.1s-.2 0-.3-.1l-9-9c-.9-.9-2.3-.9-3.1 0l-7.3 7.4V34.2c0-.4.3-.8.8-.8h34.5c.4 0 .8.3.8.8v21.5zm-97.6-14.5h0 0z" fill="#fff"/><g fill="#f21197"><path d="M52.3 88.2v.8l1.4-.5v4.6h1v-5.7h-.1zm77.3 2.6c.4-.4.6-.7.8-1.1s.2-.6.2-.9c0-.5-.2-.9-.5-1.2s-.8-.4-1.3-.4c-.4 0-.7.1-1 .2-.3.2-.5.4-.7.6s-.2.6-.2.9h.9c0-.3.1-.6.3-.8s.4-.3.7-.3.5.1.6.2.2.4.2.7c0 .2-.1.4-.2.6s-.3.5-.6.8l-1.9 2.1v.7h3.8v-.8h-2.6l1.5-1.3zm75.1-.7c.3-.1.5-.3.6-.5s.2-.5.2-.7c0-.5-.2-.9-.5-1.2s-.8-.4-1.3-.4a2.39 2.39 0 0 0-.9.2c-.2.1-.5.3-.6.6s-.2.5-.2.8h.9c0-.2.1-.4.2-.6s.4-.2.6-.2c.3 0 .5.1.7.2s.2.4.2.6c0 .3-.1.5-.3.6s-.4.2-.7.2h-.6v.8h.6c.3 0 .6.1.8.2s.3.4.3.7-.1.5-.3.7-.4.2-.7.2-.5-.1-.7-.2-.3-.4-.3-.6h-.9c0 .5.2.9.5 1.2s.8.4 1.3.4c.6 0 1-.2 1.4-.5s.5-.7.5-1.2c0-.3-.1-.6-.2-.8s-.3-.3-.6-.5z"/><circle cx="94.8" cy="108.4" r="5"/><path d="M18.4 78.9h35.2v1.8h-1.9l2.2 3.9 2.2-3.9h-1.9v-1.8h35.2V12.8h-71v66.1zm.7-65.4h69.7v64.6H19.1V13.5zm74.2 65.4h35.2v1.8h-1.9l2.2 3.9 2.2-3.9h-1.9v-1.8h35.2V12.8h-71v66.1zm.8-65.4h69.7v64.6H94.1V13.5zm145.3 65.4V12.8h-71.2v66.1h35.2v1.8h-1.9l2.2 3.9 2.2-3.9H204v-1.8h35.4zM169 13.5h69.7v64.6H169V13.5z"/></g></svg>