<svg xmlns="http://www.w3.org/2000/svg" width='240' height='200' xmlns:xlink="http://www.w3.org/1999/xlink" viewBox="0 0 250 126"><path d="M79.2 21.9h-58c-1.1 0-2 .9-2 2v59.8c0 1.1.9 2 2 2h58.1c1.1 0 2-.9 2-2V23.9c-.1-1.1-1-2-2.1-2zm74.9 0H96c-1.1 0-2 .9-2 2v59.8c0 1.1.9 2 2 2h58.1c1.1 0 2-.9 2-2V23.9c0-1.1-.9-2-2-2zm74.8 0h-58.1c-1.1 0-2 .9-2 2v59.8c0 1.1.9 2 2 2h58.1c1.1 0 2-.9 2-2V23.9c0-1.1-.9-2-2-2z" fill="#dedee0"/><path d="M79.2 16.9h-58c-1.1 0-2 .9-2 2v29.2h62.1V18.9c-.1-1.1-1-2-2.1-2zm-14.1 38c.5 0 .9-.4.9-.9s-.4-1-.9-1H35.3c-.5 0-.9.4-.9.9s.4.9.9.9l29.8.1h0zM74 60H26.4a.5.5 0 1 0 0 1H74a.47.47 0 0 0 .5-.5c0-.3-.3-.5-.5-.5zm0 3.7H26.4a.5.5 0 1 0 0 1H74a.47.47 0 0 0 .5-.5c0-.3-.3-.5-.5-.5zm.1 3.8H26.5a.5.5 0 1 0 0 1h47.6a.47.47 0 0 0 .5-.5c0-.3-.3-.5-.5-.5zM62 71.1H38.6a.5.5 0 1 0 0 1h23.3a.47.47 0 0 0 .5-.5c0-.3-.2-.5-.4-.5zm92.1-54.2H96c-1.1 0-2 .9-2 2v41.4h62.1V18.9c0-1.1-.9-2-2-2zM140 67.3c.5 0 .9-.4.9-.9s-.4-.9-.9-.9h-29.9c-.5 0-.9.4-.9.9s.4.9.9.9H140zm8.8 5.1h-47.6a.5.5 0 1 0 0 1h47.6a.5.5 0 1 0 0-1zm0 3.7h-47.6a.5.5 0 1 0 0 1h47.6a.5.5 0 1 0 0-1zm-12.1 3.6h-23.3a.5.5 0 1 0 0 1h23.3a.5.5 0 1 0 0-1zm92.2-62.8h-58.1c-1.1 0-2 .9-2 2v34h62.1v-34c0-1.1-.9-2-2-2zM214.8 60c.5 0 .9-.4.9-.9s-.4-.9-.9-.9h-29.9c-.5 0-.9.4-.9.9s.4.9.9.9h29.9zm8.9 5.2h-47.6a.5.5 0 1 0 0 1h47.6a.47.47 0 0 0 .5-.5c0-.3-.3-.5-.5-.5zm0 3.6h-47.6a.5.5 0 1 0 0 1h47.6a.47.47 0 0 0 .5-.5c0-.3-.3-.5-.5-.5zm-12.2 3.7h-23.3a.5.5 0 1 0 0 1h23.3a.5.5 0 1 0 0-1z" fill="#8796a1"/><path d="M40.9 24.5a2.7 2.7 0 1 0 0 5.4 2.7 2.7 0 1 0 0-5.4zm26.6-5.3H32.9c-1 0-1.7.8-1.7 1.7v23.2c0 .5.2.9.5 1.2v.1h.1c.3.3.7.5 1.2.5h34.5c.5 0 .9-.2 1.2-.5h.1v-.1c.3-.3.5-.7.5-1.2V21c-.1-1-.9-1.8-1.8-1.8zm.7 23.2l-10.6-15a2.25 2.25 0 0 0-3.6 0L46.6 38l5.6 5.6c.2.2.2.5 0 .7-.1.1-.2.1-.3.1s-.2 0-.3-.1l-9-9c-.9-.9-2.3-.9-3.1 0l-7.3 7.4V21c0-.4.3-.8.8-.8h34.5c.4 0 .8.3.8.8v21.4h-.1zm47.5-11.8a2.7 2.7 0 1 0 0 5.4 2.7 2.7 0 1 0 0-5.4zm26.6-5.3h-34.5c-1 0-1.7.8-1.7 1.7v23.2c0 .5.2.9.5 1.2v.1h.1c.3.3.7.5 1.2.5h34.5c.5 0 .9-.2 1.2-.5h.1v-.1c.3-.3.5-.7.5-1.2V27.1c-.2-1-.9-1.8-1.9-1.8zm.8 23.2l-10.6-15a2.25 2.25 0 0 0-3.6 0L121.4 44l5.6 5.6c.2.2.2.5 0 .7-.1.1-.2.1-.3.1s-.2 0-.3-.1l-9-9c-.9-.9-2.3-.9-3.1 0l-7.3 7.4V27.1c0-.4.3-.8.8-.8h34.5c.4 0 .8.3.8.8v21.4h0zm47.4-21.7a2.7 2.7 0 1 0 0 5.4 2.69 2.69 0 0 0 2.7-2.7c0-1.4-1.2-2.7-2.7-2.7zm26.6-5.2h-34.5c-1 0-1.7.8-1.7 1.7v23.2c0 .5.2.9.5 1.2v.1h.1c.3.3.7.5 1.2.5h34.5c.5 0 .9-.2 1.2-.5h.1v-.1c.3-.3.5-.7.5-1.2V23.4c-.1-1-.9-1.8-1.9-1.8zm.8 23.2l-10.6-15a2.25 2.25 0 0 0-3.6 0l-7.5 10.5 5.6 5.6c.2.2.2.5 0 .7-.1.1-.2.1-.3.1s-.2 0-.3-.1l-9-9c-.9-.9-2.3-.9-3.1 0l-7.3 7.4V23.4c0-.4.3-.8.8-.8h34.5c.4 0 .8.3.8.8v21.4h0z" fill="#fff"/><g fill="#f21197"><path d="M17.9 85.2c0-.2-.2-.4-.4-.4h-1.3V17.3h1.3c.2 0 .4-.2.4-.4s-.2-.4-.4-.4h-1.7c-.2 0-.4.2-.4.4v68.3c0 .2.2.4.4.4h1.7c.2 0 .4-.2.4-.4zm74.6-67.9c.2 0 .4-.2.4-.4s-.2-.4-.4-.4h-1.7c-.2 0-.4.2-.4.4v68.3c0 .2.2.4.4.4h1.7c.2 0 .4-.2.4-.4s-.2-.4-.4-.4h-1.3V17.3h1.3zm74.8 67.5H166V17.3h1.3c.2 0 .4-.2.4-.4s-.2-.4-.4-.4h-1.7c-.2 0-.4.2-.4.4v68.3c0 .2.2.4.4.4h1.7c.2 0 .4-.2.4-.4s-.2-.4-.4-.4z"/><circle cx="71.4" cy="103.8" r="5"/></g><g fill="#231f20"><path d="M81.8 104.7h3.5v-1.1h-3.5v-2.4h4V100h-5.5v8.5h5.6v-1.1h-4.1zm9-1.9c-.4-.5-1-.7-1.7-.7-.8 0-1.4.3-1.8.9s-.7 1.4-.7 2.4.2 1.9.7 2.5 1.1.9 1.8.9 1.2-.2 1.6-.7v3h1.4v-8.8h-1.3v.5zm-.1 4c-.3.5-.7.7-1.3.7-.5 0-.8-.2-1.1-.6s-.4-.9-.4-1.5c0-.8.1-1.3.4-1.7s.6-.5 1.1-.5c.6 0 1 .2 1.2.7l.1 2.9h0zm6.7 0c-.2.5-.7.7-1.4.7s-1-.4-1-1.2v-4.1h-1.4v4.1c0 .8.2 1.3.5 1.7s.9.6 1.6.6c.8 0 1.4-.2 1.8-.7v.6h1.3v-6.3h-1.4v4.6zm7.9-2.6c0-.7-.2-1.2-.7-1.6s-1-.6-1.8-.6c-.5 0-.9.1-1.3.3s-.7.4-.9.7a1.69 1.69 0 0 0-.3 1h1.4c0-.2.1-.5.3-.6s.5-.2.8-.2c.4 0 .7.1.8.3s.3.5.3.8v.4h-.9c-.9 0-1.7.2-2.2.5s-.8.9-.8 1.6c0 .5.2 1 .6 1.3s.9.5 1.6.5a2.19 2.19 0 0 0 1.7-.7c0 .3.1.5.2.6h1.5v-.1c-.2-.3-.2-.8-.2-1.4l-.1-2.8h0zm-1.4 2.6c-.1.2-.3.4-.6.6s-.5.2-.8.2-.5-.1-.7-.2-.3-.4-.3-.7.1-.6.4-.8.7-.3 1.2-.3h.8v1.2zm3-7.3h1.4v9h-1.4zm10.9 4.8c-.4-.3-.9-.5-1.6-.7s-1.1-.4-1.4-.6-.4-.5-.4-.8c0-.4.1-.7.4-.9s.6-.3 1.1-.3.9.1 1.2.4.4.6.4 1h1.5c0-.5-.1-.9-.4-1.3s-.6-.7-1.1-.9-1-.3-1.6-.3c-.9 0-1.6.2-2.2.7s-.8 1-.8 1.7c0 .8.4 1.4 1.2 1.9.4.3 1 .5 1.6.7s1.2.4 1.4.6.4.5.4.9c0 .3-.1.6-.4.8s-.6.3-1.2.3-1.1-.1-1.4-.4-.5-.6-.5-1.1h-1.4c0 .5.1 1 .4 1.4a2.73 2.73 0 0 0 1.2.9c.5.2 1.1.3 1.7.3.9 0 1.7-.2 2.2-.6s.8-1 .8-1.7c0-.4-.1-.8-.3-1.1s-.4-.6-.8-.9zm2.4-4.8h1.4v9h-1.4zm3.8.3c-.3 0-.5.1-.6.2s-.2.3-.2.5.1.4.2.5.3.2.6.2.5-.1.6-.2.2-.3.2-.5-.1-.4-.2-.5-.4-.2-.6-.2zm-.8 2.4h1.4v6.3h-1.4zm6.9.6c-.4-.5-1-.7-1.6-.7-.8 0-1.4.3-1.8.9s-.7 1.4-.7 2.4.2 1.8.7 2.4 1.1.9 1.8.9 1.3-.3 1.7-.8l.1.7h1.3v-9h-1.4v3.2h-.1zm0 3.9c-.3.5-.7.8-1.3.8-.5 0-.8-.2-1.1-.5s-.4-.9-.4-1.5c0-.7.1-1.3.4-1.6s.6-.5 1.1-.5c.6 0 1 .3 1.3.8v2.5z"/><use xlink:href="#B"/><path d="M140.8 102.9v-.7h-1.4v6.3h1.4v-4.3c.2-.5.7-.8 1.3-.8h.6v-1.3c-.1-.1-.3-.1-.5-.1-.6.1-1 .4-1.4.9zm11.3.7h-3.8V100h-1.5v8.5h1.5v-3.7h3.8v3.7h1.5V100h-1.5z"/><use xlink:href="#B" x="22.2"/><path d="M161.7 102.2h1.4v6.3h-1.4zm.7-2.4c-.3 0-.5.1-.6.2s-.2.3-.2.5.1.4.2.5.3.2.6.2.5-.1.6-.2.2-.3.2-.5-.1-.4-.2-.5-.3-.2-.6-.2zm6.3 3c-.4-.5-1-.8-1.7-.8-.8 0-1.4.3-1.8.9s-.7 1.4-.7 2.4.2 1.9.7 2.4 1.1.9 1.8.9 1.2-.2 1.6-.7v.4c0 .5-.1.9-.4 1.1s-.6.4-1.1.4c-.6 0-1.2-.3-1.6-.8l-.7.9c.2.3.6.6 1 .8s.9.3 1.4.3c.9 0 1.6-.2 2.1-.7s.8-1.1.8-2v-6.1h-1.3l-.1.6zm-.1 4c-.3.5-.7.7-1.3.7-.5 0-.8-.2-1.1-.5s-.4-.9-.4-1.5c0-.7.1-1.3.4-1.6s.6-.6 1.1-.6c.6 0 1 .2 1.3.7v2.8zm6-4.7c-.7 0-1.3.3-1.8.8v-3.4h-1.4v9h1.4V104c.3-.5.7-.8 1.3-.8.4 0 .6.1.8.3s.3.5.3.9v4.1h1.4v-4.1c.1-1.5-.6-2.3-2-2.3zm5.5 5.2c-.1-.1-.1-.3-.1-.5v-3.5h1.1v-1.1H180v-1.5h-1.4v1.5h-1v1.1h1v3.6c0 1.2.5 1.8 1.6 1.8.3 0 .6 0 .9-.1v-1.1c-.2 0-.3.1-.5.1-.3-.1-.4-.2-.5-.3z"/></g><path d="M84.5 16.5h-1.7c-.2 0-.4.2-.4.4s.2.4.4.4h1.3v30.5h-1.3c-.2 0-.4.2-.4.4s.2.4.4.4h1.7c.2 0 .4-.2.4-.4V16.9c0-.2-.2-.4-.4-.4zm74.8 0h-1.7c-.2 0-.4.2-.4.4s.2.4.4.4h1.3v42.6h-1.3c-.2 0-.4.2-.4.4s.2.4.4.4h1.7c.2 0 .4-.2.4-.4V16.9c0-.2-.2-.4-.4-.4zm74.9 0h-1.7c-.2 0-.4.2-.4.4s.2.4.4.4h1.3v35.2h-1.3c-.2 0-.4.2-.4.4s.2.4.4.4h1.7c.2 0 .4-.2.4-.4v-36c0-.2-.2-.4-.4-.4z" fill="#ff5a08"/><defs ><path id="B" d="M135.6 102.1c-.5 0-1 .1-1.5.4s-.8.7-1 1.2-.4 1.1-.4 1.7v.2c0 .9.3 1.7.8 2.3s1.3.9 2.2.9c.5 0 1-.1 1.4-.3s.8-.5 1-.9l-.8-.7c-.4.5-.9.8-1.6.8-.5 0-.9-.2-1.2-.5s-.5-.7-.5-1.2h4.1v-.6c0-1-.2-1.8-.7-2.3s-.9-1-1.8-1zm1.3 2.7h-2.7c.1-.5.2-.9.5-1.1s.6-.4.9-.4c.4 0 .7.1.9.4s.3.6.4 1.1z"/></defs></svg>