<svg xmlns="http://www.w3.org/2000/svg" width='240' height='200' xmlns:xlink="http://www.w3.org/1999/xlink" viewBox="0 0 250 126" xmlns:v="https://vecta.io/nano"><path d="M83 17.2H24.9c-1.1 0-2 .9-2 2v53.2c0 1.1.9 2 2 2H83c1.1 0 2-.9 2-2V19.2c0-1.1-.9-2-2-2zm74.9 0h-58c-1.1 0-2 .9-2 2v53.2c0 1.1.9 2 2 2H158c1.1 0 2-.9 2-2V19.2c-.1-1.1-1-2-2.1-2zm75 0h-58.1c-1.1 0-2 .9-2 2v53.2c0 1.1.9 2 2 2h58.1c1.1 0 2-.9 2-2V19.2c0-1.1-.9-2-2-2z" fill="#8796a1"/><path d="M122.3 40.4a2.7 2.7 0 1 0-5.4 0 2.7 2.7 0 1 0 5.4 0zm-11.9 18.3h0c.4.3.8.5 1.3.5h34.5c.5 0 .9-.2 1.2-.5h.1v-.1c.3-.3.5-.7.5-1.2V34.2c0-1-.8-1.7-1.7-1.7h-34.5c-1 0-1.7.8-1.7 1.7v23.2c-.2.5 0 .9.3 1.3h0zm.5-24.5c0-.4.3-.8.8-.8h34.5c.4 0 .8.3.8.8v21.5l-10.6-15a2.25 2.25 0 0 0-3.6 0l-7.5 10.5 5.6 5.6c.2.2.2.5 0 .7-.1.1-.2.1-.3.1s-.2 0-.3-.1l-9-9c-.9-.9-2.3-.9-3.1 0l-7.3 7.4V34.2z" fill="#a1abaf"/><path d="M157.9 74.4h-58c-1.1 0-2-.9-2-2V19.2c0-1.1.9-2 2-2H158c1.1 0 2 .9 2 2v53.2c-.1 1.1-1 2-2.1 2z" opacity=".55" fill="#f21197"/><g fill="#231f20"><path d="M58.3 101h1.5v8.5h-1.5zm10 2.1c-.8 0-1.5.3-1.9 1-.3-.6-.9-1-1.7-1s-1.4.3-1.8.8v-.7h-1.3v6.3H63V105c.2-.5.6-.7 1.2-.7.7 0 1.1.4 1.1 1.1v4.2h1.4v-4.3c.1-.3.2-.5.4-.7s.5-.3.8-.3c.4 0 .7.1.9.3s.3.5.3.9v4.1h1.4v-4.2c0-.8-.2-1.3-.5-1.7s-1-.6-1.7-.6zm8.6 2.2c0-.7-.2-1.2-.7-1.6s-1-.6-1.8-.6c-.5 0-.9.1-1.3.3s-.7.4-.9.7a1.69 1.69 0 0 0-.3 1h1.4c0-.2.1-.5.3-.6s.5-.2.8-.2c.4 0 .7.1.8.3s.3.5.3.8v.4h-.9c-.9 0-1.7.2-2.2.5s-.8.9-.8 1.6c0 .5.2 1 .6 1.3s.9.5 1.6.5a2.19 2.19 0 0 0 1.7-.7c0 .3.1.5.2.6h1.5v-.1c-.2-.3-.2-.8-.2-1.4v-2.8zm-1.5 2.5c-.1.2-.3.4-.6.6s-.5.2-.8.2-.5-.1-.7-.2-.3-.4-.3-.7.1-.6.4-.8.7-.3 1.2-.3h.8v1.2zm6.9-3.9c-.4-.5-1-.8-1.7-.8-.8 0-1.4.3-1.8.9s-.7 1.4-.7 2.4.2 1.9.7 2.4 1.1.9 1.8.9 1.2-.2 1.6-.7v.4c0 .5-.1.9-.4 1.1s-.6.4-1.1.4c-.6 0-1.2-.3-1.6-.8l-.7.9c.2.3.6.6 1 .8s.9.3 1.4.3c.9 0 1.6-.2 2.1-.7s.8-1.1.8-2v-6.1h-1.3l-.1.6zm0 3.9c-.3.5-.7.7-1.3.7-.5 0-.8-.2-1.1-.5s-.4-.9-.4-1.5c0-.7.1-1.3.4-1.6s.6-.6 1.1-.6c.6 0 1 .2 1.3.7v2.8z"/><use xlink:href="#B"/><path d="M94.8 101h1.5v8.5h-1.5zm4.7 3.8c.2-.3.6-.5 1.1-.5.4 0 .7.1.9.4s.4.5.4.9h1.3c0-.7-.3-1.3-.7-1.7s-1.1-.7-1.8-.7c-.9 0-1.6.3-2.1.9s-.8 1.4-.8 2.3v.1c0 1 .3 1.8.8 2.4s1.2.9 2.1.9c.5 0 .9-.1 1.3-.3a2.36 2.36 0 0 0 .9-.8c.2-.3.4-.7.4-1.1H102c0 .3-.1.6-.4.8s-.5.3-.9.3c-.5 0-.8-.2-1.1-.5s-.4-.9-.4-1.5v-.2c-.1-.9.1-1.4.3-1.7zm9.5-.9c-.5-.6-1.2-.8-2.1-.8-.6 0-1.1.1-1.5.4s-.8.7-1 1.1-.4 1.1-.4 1.7v.1c0 1 .3 1.8.8 2.4s1.3.9 2.1.9c.6 0 1.1-.1 1.5-.4s.8-.7 1-1.1.4-1.1.4-1.7v-.3c0-1-.3-1.7-.8-2.3zm-.9 4.1c-.3.4-.6.6-1.1.6s-.9-.2-1.1-.6-.4-.9-.4-1.5c0-.7.1-1.3.4-1.7s.6-.6 1.1-.6.8.2 1.1.6.4.9.4 1.5a3.53 3.53 0 0 1-.4 1.7zm6.2-4.9c-.8 0-1.4.3-1.8.8v-.7h-1.3v6.3h1.4V105c.3-.5.7-.8 1.3-.8.4 0 .7.1.9.3s.3.5.3.9v4.1h1.4v-4.2c-.2-1.4-.9-2.2-2.2-2.2zm11.7-1.7c-.5-.3-1.2-.5-1.8-.5s-1.3.2-1.8.5-1 .8-1.2 1.5-.4 1.4-.4 2.2v.5c0 .8.2 1.5.4 2.2s.7 1.1 1.3 1.4 1.2.5 1.8.5c.7 0 1.3-.2 1.9-.5s1-.8 1.2-1.5.4-1.4.4-2.2v-.5c0-.8-.2-1.6-.4-2.2s-.9-1-1.4-1.4zm.2 4.1c0 1-.2 1.7-.5 2.2s-.9.8-1.5.8-1.2-.3-1.5-.8-.5-1.2-.5-2.2v-.5c0-.9.2-1.6.6-2.1s.9-.8 1.5-.8c.7 0 1.2.3 1.5.8s.5 1.2.5 2.2v.4zm5.1 2.3l-1.4-4.6h-1.5l2.2 6.4h1.3l2.2-6.4h-1.5z"/><use xlink:href="#B" x="49.7"/><path d="M142.7 103.9v-.7h-1.4v6.3h1.4v-4.3c.2-.5.7-.8 1.3-.8h.6v-1.3c-.1-.1-.3-.1-.5-.1-.6.1-1 .4-1.4.9zm2.9-3.3h1.4v9h-1.4zm8 4.7c0-.7-.2-1.2-.7-1.6s-1-.6-1.8-.6c-.5 0-.9.1-1.3.3s-.7.4-.9.7a1.69 1.69 0 0 0-.3 1h1.4c0-.2.1-.5.3-.6s.5-.2.8-.2c.4 0 .7.1.8.3s.3.5.3.8v.4h-.9c-.9 0-1.7.2-2.2.5s-.8.9-.8 1.6c0 .5.2 1 .6 1.3s.9.5 1.6.5a2.19 2.19 0 0 0 1.7-.7c0 .3.1.5.2.6h1.5v-.1c-.2-.3-.2-.8-.2-1.4v-2.8zm-1.4 2.5c-.1.2-.3.4-.6.6s-.5.2-.8.2-.5-.1-.7-.2-.3-.4-.3-.7.1-.6.4-.8.7-.3 1.2-.3h.8v1.2zm5-.3l-1.3-4.3h-1.5l2.2 6.3-.2.5c-.1.3-.2.5-.4.7s-.5.2-.8.2h-.3v1.1c.2.1.5.1.7.1.9 0 1.6-.5 2-1.6l2.5-7.3h-1.5l-1.4 4.3zm8.5-4.7c.3-.5.8-.7 1.5-.7.6 0 1 .1 1.3.4s.5.7.5 1.3h1.5c-.1-.9-.4-1.7-1-2.2s-1.3-.8-2.3-.8c-.7 0-1.3.2-1.8.5s-.9.8-1.2 1.4-.4 1.3-.4 2.1v.8c0 .8.2 1.5.4 2.1s.7 1.1 1.2 1.4 1.1.5 1.8.5c1 0 1.8-.3 2.3-.8a3.47 3.47 0 0 0 1-2.1H169c-.1.6-.3 1-.6 1.3s-.7.4-1.3.4-1.1-.2-1.5-.7c-.3-.5-.5-1.2-.5-2.1v-.8c.1-.8.3-1.5.6-2z"/><use xlink:href="#C"/><path d="M178.6 100.6h1.4v9h-1.4z"/><use xlink:href="#C" x="9.9"/><path d="M191.2 103.1c-.6 0-1.1.3-1.4.8v-.7h-1.4v6.3h1.4v-4.3c.2-.5.7-.8 1.3-.8h.6v-1.3c-.1.1-.3 0-.5 0z"/></g><path d="M127.5 96.2V79.8h1.9l-2.3-4-2.3 4h1.9v16.5c-.8.2-1.3.9-1.3 1.7 0 1 .8 1.7 1.7 1.7s1.7-.8 1.7-1.7-.6-1.6-1.3-1.8z" fill="#f21197"/><g fill="#fff"><path d="M147.9 57.5c-.3 0-.5.2-.6.4v-.4a.65.65 0 0 0-.6-.6.65.65 0 0 0-.6.6v-.2a.65.65 0 0 0-.6-.6.65.65 0 0 0-.6.6v-1.6a.65.65 0 0 0-.6-.6.65.65 0 0 0-.6.6v3 .1.2l-.8-.5a.78.78 0 0 0-1 .2.78.78 0 0 0 .2 1l1.6.9c0 .5.4 1 .9 1.2v1.8h3.1v-1.7c.5-.2.9-.7.9-1.3V59v-.1-.6c-.1-.5-.4-.8-.7-.8z" stroke="#231f20" stroke-width=".3" stroke-miterlimit="10"/><path d="M44.7 37.7a2.7 2.7 0 1 0 0 5.4 2.69 2.69 0 0 0 2.7-2.7c0-1.5-1.3-2.7-2.7-2.7zm26.5-5.2H36.7c-1 0-1.7.8-1.7 1.7v23.2c0 .5.2.9.5 1.2v.1h.1c.3.3.7.5 1.2.5h34.5c.5 0 .9-.2 1.2-.5h.1v-.1c.3-.3.5-.7.5-1.2V34.2c-.1-.9-.9-1.7-1.9-1.7zm.8 23.2l-10.6-15a2.25 2.25 0 0 0-3.6 0l-7.5 10.5 5.6 5.6c.2.2.2.5 0 .7-.1.1-.2.1-.3.1s-.2 0-.3-.1l-9-9c-.9-.9-2.3-.9-3.1 0L35.9 56V34.2c0-.4.3-.8.8-.8h34.5c.4 0 .8.3.8.8v21.5zm122.5-18a2.7 2.7 0 1 0 0 5.4 2.7 2.7 0 1 0 0-5.4zm26.6-5.2h-34.5c-1 0-1.7.8-1.7 1.7v23.2c0 .5.2.9.5 1.2v.1h.1c.3.3.7.5 1.2.5h34.5c.5 0 .9-.2 1.2-.5h.1v-.1c.3-.3.5-.7.5-1.2V34.2c-.1-.9-.9-1.7-1.9-1.7zm.8 23.2l-10.6-15a2.25 2.25 0 0 0-3.6 0l-7.5 10.5 5.6 5.6c.2.2.2.5 0 .7-.1.1-.2.1-.3.1s-.2 0-.3-.1l-9-9c-.9-.9-2.3-.9-3.1 0l-7.3 7.4V34.2c0-.4.3-.8.8-.8h34.5c.4 0 .8.3.8.8v21.5zm-90-8.5c1.2-1.9.9-4.4-.7-6a4.89 4.89 0 0 0-6.9 0 4.89 4.89 0 0 0 0 6.9c1.6 1.6 4.1 1.9 6 .7l2.7 2.7c.5.5 1.2.5 1.7 0 .4-.4.4-1.2 0-1.6l-2.8-2.7zm-1.7-.2c-1.4 1.4-3.5 1.4-4.9 0-1.3-1.3-1.3-3.5 0-4.8 1.4-1.3 3.5-1.3 4.9 0 1.3 1.4 1.3 3.5 0 4.8z"/><path d="M124.3 41.2h0 0z"/></g><defs ><path id="B" d="M87.8 103.1c-.5 0-1 .1-1.5.4s-.8.7-1 1.2-.4 1.1-.4 1.7v.2c0 .9.3 1.7.8 2.3s1.3.9 2.2.9c.5 0 1-.1 1.4-.3s.8-.5 1-.9l-.8-.7c-.4.5-.9.8-1.6.8-.5 0-.9-.2-1.2-.5s-.5-.7-.5-1.2h4.1v-.6c0-1-.2-1.8-.7-2.3s-.9-1-1.8-1zm1.3 2.7h-2.7c.1-.5.2-.9.5-1.1s.6-.4.9-.4c.4 0 .7.1.9.4s.3.6.4 1.1h0z"/><path id="C" d="M176.4 103.9c-.5-.6-1.2-.8-2.1-.8-.6 0-1.1.1-1.5.4s-.8.7-1 1.1-.4 1.1-.4 1.7v.1c0 1 .3 1.8.8 2.4s1.3.9 2.1.9c.6 0 1.1-.1 1.5-.4s.8-.7 1-1.1.4-1.1.4-1.7v-.3c.1-1-.2-1.7-.8-2.3zm-.9 4.1c-.3.4-.6.6-1.1.6s-.9-.2-1.1-.6-.4-.9-.4-1.5c0-.7.1-1.3.4-1.7s.6-.6 1.1-.6.8.2 1.1.6.4.9.4 1.5c0 .8-.1 1.3-.4 1.7z"/></defs></svg>