<svg xmlns="http://www.w3.org/2000/svg" width='240' height='200' xmlns:xlink="http://www.w3.org/1999/xlink" viewBox="0 0 250 207"><path d="M0 0h250v207H0z" opacity=".65" fill="#0f0f0f" enable-background="new"/><path d="M39.7 16.9h170.6v135.8H39.7z" fill="#f4f4f4"/><path d="M241.9 83.4l-5.9-5.9c-.7-.7-1.9-.7-2.6 0s-.7 1.9 0 2.6l4.7 4.7-4.7 4.7c-.7.7-.7 1.9 0 2.6.2.2.7.5 1.2.5s.9-.2 1.4-.7l5.9-5.9c.7-.7.7-1.9 0-2.6zM16.7 77.7c-.7-.7-1.9-.7-2.6 0l-5.9 5.9c-.7.7-.7 1.9 0 2.6l5.9 5.9c.2.2.7.5 1.2.5s.9-.2 1.4-.2c.7-.7.7-1.9 0-2.6L12 85.1l4.7-4.7c.7-.8.7-1.9 0-2.7z" fill="#fff"/><path d="M97.3 109.5h55.4c2.2 0 4-1.8 4-4V64.2c0-2.2-1.8-4-4-4H97.3c-2.2 0-4 1.8-4 4v41.3c0 2.2 1.7 4 4 4zm0-45.3h55.4v29.3l-7.9-7.3c-1.2-1.1-3-1.1-4.2.1l-8 8.1-15.8-18.9c-1-1.3-2.9-1.5-4.2-.4-.2.1-.3.3-.4.4L97.3 92.7V64.2zm43.9 16.1h.1c3 0 5.5-2.5 5.4-5.6a5.6 5.6 0 1 0-11.2 0c.1 3.2 2.6 5.6 5.7 5.6zm-36.2 86H79.9c-1.3 0-2.1.8-2.1 2.1v25.1c0 1.3.8 2.1 2.1 2.1H105c1.3 0 2.1-.8 2.1-2.1v-25.1c0-1.3-.8-2.1-2.1-2.1zm-32.5 0H47.4c-1.3 0-2.1.8-2.1 2.1v25.1c0 1.3.8 2.1 2.1 2.1h25.1c1.3 0 2.1-.8 2.1-2.1v-25.1c0-1.3-.8-2.1-2.1-2.1zm-32.5 0H14.9c-1.3 0-2.1.8-2.1 2.1v25.1c0 1.3.8 2.1 2.1 2.1H40c1.3 0 2.1-.8 2.1-2.1v-25.1c0-1.3-.8-2.1-2.1-2.1zm97.6 0h-25.1c-1.3 0-2.1.8-2.1 2.1v25.1c0 1.3.8 2.1 2.1 2.1h25.1c1.3 0 2.1-.8 2.1-2.1v-25.1c-.1-1.3-.9-2.1-2.1-2.1zm32.5 0H145c-1.3 0-2.1.8-2.1 2.1v25.1c0 1.3.8 2.1 2.1 2.1h25.1c1.3 0 2.1-.8 2.1-2.1v-25.1c0-1.3-.9-2.1-2.1-2.1zm32.5 0h-25.1c-1.3 0-2.1.8-2.1 2.1v25.1c0 1.3.8 2.1 2.1 2.1h25.1c1.3 0 2.1-.8 2.1-2.1v-25.1c0-1.3-.9-2.1-2.1-2.1zm32.5 0H210c-1.3 0-2.1.8-2.1 2.1v25.1c0 1.3.8 2.1 2.1 2.1h25.1c1.3 0 2.1-.8 2.1-2.1v-25.1c0-1.3-.8-2.1-2.1-2.1z" fill="#8796a1"/><g fill="#d9e3e8"><path d="M101.4 172.9H83.5c-.7 0-1.3.6-1.3 1.3v13.4c0 .7.6 1.3 1.3 1.3h17.9c.7 0 1.3-.6 1.3-1.3v-13.4c0-.6-.5-1.3-1.3-1.3zm0 10.8l-2.6-2.3c-.4-.3-1-.3-1.4 0l-2.6 2.6-5.1-6.1c-.3-.4-.9-.5-1.3-.1-.1 0-.1.1-.1.1l-4.8 5.5v-9.2h17.9v9.5z"/><use xlink:href="#B"/><path d="M68.9 172.9H51c-.7 0-1.3.6-1.3 1.3v13.4c0 .7.6 1.3 1.3 1.3h17.9c.7 0 1.3-.6 1.3-1.3v-13.4c0-.6-.5-1.3-1.3-1.3zm0 10.8l-2.6-2.3c-.4-.3-1-.3-1.4 0l-2.6 2.6-5.1-6.1c-.3-.4-.9-.5-1.3-.1-.1 0-.1.1-.1.1l-4.8 5.5v-9.2h17.9v9.5z"/><use xlink:href="#B" x="-32.5"/><path d="M36.4 172.9H18.5c-.7 0-1.3.6-1.3 1.3v13.4c0 .7.6 1.3 1.3 1.3h17.9c.7 0 1.3-.6 1.3-1.3v-13.4c0-.6-.6-1.3-1.3-1.3zm0 10.8l-2.6-2.3c-.4-.3-1-.3-1.4 0l-2.6 2.6-5.1-6.1c-.3-.4-.9-.5-1.3-.1-.1 0-.1.1-.1.1l-4.8 5.5v-9.2h17.9v9.5z"/><use xlink:href="#B" x="-65"/><path d="M134 172.9h-18c-.7 0-1.3.6-1.3 1.3v13.4c0 .7.6 1.3 1.3 1.3h18c.7 0 1.3-.6 1.3-1.3v-13.4c0-.6-.6-1.3-1.3-1.3zm0 10.8l-2.6-2.3c-.4-.3-1-.3-1.4 0l-2.6 2.6-5.1-6.1c-.3-.4-.9-.5-1.3-.1-.1 0-.1.1-.1.1l-4.8 5.5v-9.2H134v9.5z"/><use xlink:href="#B" x="32.5"/><path d="M166.5 172.9h-17.9c-.7 0-1.3.6-1.3 1.3v13.4c0 .7.6 1.3 1.3 1.3h17.9c.7 0 1.3-.6 1.3-1.3v-13.4c0-.6-.6-1.3-1.3-1.3zm0 10.8l-2.6-2.3c-.4-.3-1-.3-1.4 0L160 184l-5.1-6.1c-.3-.4-.9-.5-1.3-.1-.1 0-.1.1-.1.1l-4.8 5.5v-9.2h17.9l-.1 9.5h0zm-3.8-4.2h0a1.8 1.8 0 1 0 0-3.6 1.79 1.79 0 0 0-1.8 1.8c0 1 .9 1.8 1.8 1.8zm36.3-6.6h-17.9c-.7 0-1.3.6-1.3 1.3v13.4c0 .7.6 1.3 1.3 1.3H199c.7 0 1.3-.6 1.3-1.3v-13.4c0-.6-.6-1.3-1.3-1.3zm0 10.8l-2.6-2.3c-.4-.3-1-.3-1.4 0l-2.6 2.6-5.1-6.1c-.3-.4-.9-.5-1.3-.1-.1 0-.1.1-.1.1l-4.8 5.5v-9.2H199v9.5z"/><use xlink:href="#B" x="97.6"/><path d="M231.5 172.9h-17.9c-.7 0-1.3.6-1.3 1.3v13.4c0 .7.6 1.3 1.3 1.3h17.9c.7 0 1.3-.6 1.3-1.3v-13.4c0-.6-.6-1.3-1.3-1.3zm0 10.8l-2.6-2.3c-.4-.3-1-.3-1.4 0L225 184l-5.1-6.1c-.3-.4-.9-.5-1.3-.1-.1 0-.1.1-.1.1l-4.8 5.5v-9.2h17.9l-.1 9.5h0z"/><use xlink:href="#B" x="130.1"/></g><path d="M243.4 200.2H6.6v-38.8h236.8v38.8h0zm-236.1-.8h235.3v-37.3H7.3v37.3z" fill="#f21197"/><defs ><path id="B" d="M97.7 179.5h0a1.79 1.79 0 1 0 0-3.6 1.79 1.79 0 1 0 0 3.6z"/></defs></svg>