<svg xmlns="http://www.w3.org/2000/svg" width='240' height='200' viewBox="0 0 250 126"><path d="M154.1 16.9H96c-1.1 0-2 .9-2 2v64.8c0 1.1.9 2 2 2h58.1c1.1 0 2-.9 2-2V18.9c0-1.1-.9-2-2-2zm74.7 0h-58.1c-1.1 0-2 .9-2 2v64.8c0 1.1.9 2 2 2h58.1c1.1 0 2-.9 2-2V18.9c0-1.1-.9-2-2-2zm-149.5 0h-58c-1.1 0-2 .9-2 2v64.8c0 1.1.9 2 2 2h58.1c1.1 0 2-.9 2-2V18.9c-.1-1.1-1-2-2.1-2z" fill="#dedee0"/><path d="M154.1 16.9H96c-1.1 0-2 .9-2 2v41.4h62.1V18.9c0-1.1-.9-2-2-2zM140 67.3c.5 0 .9-.4.9-.9s-.4-.9-.9-.9h-29.9c-.5 0-.9.4-.9.9s.4.9.9.9H140zm8.8 5.1h-47.6a.5.5 0 1 0 0 1h47.6a.5.5 0 1 0 0-1zm0 3.7h-47.6a.5.5 0 1 0 0 1h47.6a.5.5 0 1 0 0-1zm-12.1 3.6h-23.3a.5.5 0 1 0 0 1h23.3a.5.5 0 1 0 0-1zm92.1-62.8h-58.1c-1.1 0-2 .9-2 2v41.4h62.1V18.9c0-1.1-.9-2-2-2zm-14.1 50.4c.5 0 .9-.4.9-.9s-.4-.9-.9-.9h-29.9c-.5 0-.9.4-.9.9s.4.9.9.9h29.9zm8.9 5.1H176a.5.5 0 1 0 0 1h47.6a.47.47 0 0 0 .5-.5c0-.3-.3-.5-.5-.5zm0 3.7H176a.5.5 0 1 0 0 1h47.6a.47.47 0 0 0 .5-.5c0-.3-.3-.5-.5-.5zm-12.2 3.6h-23.3a.5.5 0 1 0 0 1h23.3a.5.5 0 1 0 0-1zM79.3 16.9h-58c-1.1 0-2 .9-2 2v41.4h62.1V18.9c-.1-1.1-1-2-2.1-2zM65.2 67.3c.5 0 .9-.4.9-.9s-.4-.9-.9-.9H35.4c-.5 0-.9.4-.9.9s.4.9.9.9h29.8zm8.9 5.1H26.5a.5.5 0 1 0 0 1h47.6a.47.47 0 0 0 .5-.5c0-.3-.3-.5-.5-.5zm0 3.7H26.5a.5.5 0 1 0 0 1h47.6a.47.47 0 0 0 .5-.5c0-.3-.3-.5-.5-.5zM62 79.7H38.6a.5.5 0 1 0 0 1H62a.47.47 0 0 0 .5-.5c0-.3-.3-.5-.5-.5z" fill="#8796a1"/><path d="M115.7 30.6a2.7 2.7 0 1 0 0 5.4 2.7 2.7 0 1 0 0-5.4zm26.6-5.3h-34.5c-1 0-1.7.8-1.7 1.7v23.2c0 .5.2.9.5 1.2v.1h.1c.3.3.7.5 1.2.5h34.5c.5 0 .9-.2 1.2-.5h.1v-.1c.3-.3.5-.7.5-1.2V27.1c-.2-1-.9-1.8-1.9-1.8zm.8 23.2l-10.6-15a2.25 2.25 0 0 0-3.6 0L121.4 44l5.6 5.6c.2.2.2.5 0 .7-.1.1-.2.1-.3.1s-.2 0-.3-.1l-9-9c-.9-.9-2.3-.9-3.1 0l-7.3 7.4V27.1c0-.4.3-.8.8-.8h34.5c.4 0 .8.3.8.8v21.4zm47.3-17.9a2.7 2.7 0 1 0 0 5.4 2.7 2.7 0 1 0 0-5.4zm26.6-5.3h-34.5c-1 0-1.7.8-1.7 1.7v23.2c0 .5.2.9.5 1.2v.1h.1c.3.3.7.5 1.2.5H217c.5 0 .9-.2 1.2-.5h.1v-.1c.3-.3.5-.7.5-1.2V27.1a1.79 1.79 0 0 0-1.8-1.8zm.8 23.2l-10.6-15a2.25 2.25 0 0 0-3.6 0L196.1 44l5.6 5.6c.2.2.2.5 0 .7-.1.1-.2.1-.3.1s-.2 0-.3-.1l-9-9c-.9-.9-2.3-.9-3.1 0l-7.3 7.4V27.1c0-.4.3-.8.8-.8H217c.4 0 .8.3.8.8v21.4zM41 30.6a2.7 2.7 0 1 0 0 5.4 2.7 2.7 0 1 0 0-5.4zm26.6-5.3H33c-1 0-1.7.8-1.7 1.7v23.2c0 .5.2.9.5 1.2v.1h.1c.3.3.7.5 1.2.5h34.5c.5 0 .9-.2 1.2-.5h.1v-.1c.3-.3.5-.7.5-1.2V27.1c-.1-1-.9-1.8-1.8-1.8zm.7 23.2l-10.6-15a2.25 2.25 0 0 0-3.6 0L46.6 44l5.6 5.6c.2.2.2.5 0 .7-.1.1-.2.1-.3.1s-.2 0-.3-.1l-9-9c-.9-.9-2.3-.9-3.1 0l-7.3 7.4V27.1c0-.4.3-.8.8-.8h34.5c.4 0 .8.3.8.8v21.4z" fill="#fff"/><g fill="#f21197"><path d="M154.1 16.4H96c-1.4 0-2.5 1.1-2.5 2.5v64.8c0 1.4 1.1 2.5 2.5 2.5h58.1c1.4 0 2.5-1.1 2.5-2.5V18.9c0-1.4-1.2-2.5-2.5-2.5zm1.5 67.3a1.54 1.54 0 0 1-1.5 1.5H96a1.54 1.54 0 0 1-1.5-1.5V18.9a1.54 1.54 0 0 1 1.5-1.5h58.1a1.54 1.54 0 0 1 1.5 1.5v64.8zm73.2-67.3h-58.1c-1.4 0-2.5 1.1-2.5 2.5v64.8c0 1.4 1.1 2.5 2.5 2.5h58.1c1.4 0 2.5-1.1 2.5-2.5V18.9c0-1.4-1.1-2.5-2.5-2.5zm1.5 67.3a1.54 1.54 0 0 1-1.5 1.5h-58.1a1.54 1.54 0 0 1-1.5-1.5V18.9a1.54 1.54 0 0 1 1.5-1.5h58.1a1.54 1.54 0 0 1 1.5 1.5v64.8zm-151-67.3h-58c-1.4 0-2.5 1.1-2.5 2.5v64.8c0 1.4 1.1 2.5 2.5 2.5h58.1c1.4 0 2.5-1.1 2.5-2.5V18.9c-.1-1.4-1.2-2.5-2.6-2.5zm1.5 67.3a1.54 1.54 0 0 1-1.5 1.5h-58a1.54 1.54 0 0 1-1.5-1.5V18.9a1.54 1.54 0 0 1 1.5-1.5h58.1a1.54 1.54 0 0 1 1.5 1.5v64.8z"/><circle cx="88.3" cy="103.8" r="5"/></g><path d="M97.2 99.4h1.5v8.5h-1.5zm5.1 7.3c-.1-.1-.1-.3-.1-.5v-3.5h1.1v-1.1h-1.1V100h-1.4v1.5h-1v1.1h1v3.6c0 1.2.5 1.8 1.6 1.8.3 0 .6 0 .9-.1v-1.1c-.2 0-.3.1-.5.1-.2-.1-.4-.1-.5-.2zm4.7-5.3c-.5 0-1 .1-1.5.4s-.8.7-1 1.2-.4 1.1-.4 1.7v.2c0 .9.3 1.7.8 2.3s1.3.9 2.2.9c.5 0 1-.1 1.4-.3s.8-.5 1-.9l-.8-.7c-.4.5-.9.8-1.6.8-.5 0-.9-.2-1.2-.5s-.5-.7-.5-1.2h4.1v-.6c0-1-.2-1.8-.7-2.3s-.9-1-1.8-1zm1.3 2.7h-2.7c.1-.5.2-.9.5-1.1s.6-.4.9-.4c.4 0 .7.1.9.4s.3.6.4 1.1h0zm9.4-2.7c-.8 0-1.5.3-1.9 1-.3-.6-.9-1-1.7-1s-1.4.3-1.8.8v-.7H111v6.3h1.4v-4.6c.2-.5.6-.7 1.2-.7.7 0 1.1.4 1.1 1.1v4.2h1.4v-4.3c.1-.3.2-.5.4-.7s.5-.3.8-.3c.4 0 .7.1.9.3s.3.5.3.9v4.1h1.4v-4.2c0-.8-.2-1.3-.5-1.7s-1-.5-1.7-.5zm7.6 3.2c-.3-.2-.8-.3-1.3-.4s-.9-.2-1.1-.4-.3-.3-.3-.5.1-.4.3-.6.5-.2.8-.2.6.1.8.3.3.4.3.7h1.4c0-.6-.2-1.1-.7-1.5s-1.1-.6-1.8-.6-1.3.2-1.8.6-.7.8-.7 1.4c0 .7.4 1.2 1.1 1.5.3.2.7.3 1.2.4s.8.2 1 .4.3.3.3.6c0 .2-.1.4-.3.6s-.5.2-.9.2-.7-.1-.9-.3-.4-.4-.4-.8H121c0 .4.1.7.3 1.1s.5.6.9.8.9.3 1.4.3c.8 0 1.4-.2 1.9-.5.5-.4.7-.8.7-1.4 0-.3-.1-.6-.2-.9s-.4-.6-.7-.8zm9.9-1.1c.4-.2.7-.4.9-.7s.3-.7.3-1.1c0-.8-.3-1.3-.8-1.7s-1.2-.6-2.2-.6h-2.9v8.5h3.1c1 0 1.7-.2 2.2-.6s.8-1 .8-1.8c0-.5-.1-.9-.4-1.2s-.5-.7-1-.8zm-3.1-2.9h1.4c.5 0 .9.1 1.1.3s.4.5.4.9-.1.7-.4.9-.6.3-1.1.3H132v-2.4zm2.7 5.8c-.3.2-.6.3-1.1.3h-1.6V104h1.8c.9 0 1.4.5 1.4 1.4-.1.4-.2.7-.5 1zm8-4.1c-.5-.6-1.2-.8-2.1-.8-.6 0-1.1.1-1.5.4s-.8.7-1 1.1-.4 1.1-.4 1.7v.1c0 1 .3 1.8.8 2.4s1.3.9 2.1.9c.6 0 1.1-.1 1.5-.4s.8-.7 1-1.1.4-1.1.4-1.7v-.3c0-1.1-.3-1.8-.8-2.3zm-1 4c-.3.4-.6.6-1.1.6s-.9-.2-1.1-.6-.4-.9-.4-1.5c0-.7.1-1.3.4-1.7s.6-.6 1.1-.6.8.2 1.1.6.4.9.4 1.5c0 .8-.1 1.3-.4 1.7zm4.4-4v-.7h-1.4v6.3h1.4v-4.3c.2-.5.7-.8 1.3-.8h.6v-1.3c-.1-.1-.3-.1-.5-.1-.5 0-1 .3-1.4.9zm6.6-.2c-.4-.5-1-.7-1.6-.7-.8 0-1.4.3-1.8.9s-.7 1.4-.7 2.4.2 1.8.7 2.4 1.1.9 1.8.9 1.3-.3 1.7-.8l.1.7h1.3v-9h-1.4v3.2zm0 4c-.3.5-.7.8-1.3.8-.5 0-.8-.2-1.1-.5s-.4-.9-.4-1.5c0-.7.1-1.3.4-1.6s.6-.5 1.1-.5c.6 0 1 .3 1.3.8v2.5zm5.6-4.7c-.5 0-1 .1-1.5.4s-.8.7-1 1.2-.4 1.1-.4 1.7v.2c0 .9.3 1.7.8 2.3s1.3.9 2.2.9c.5 0 1-.1 1.4-.3s.8-.5 1-.9l-.8-.7c-.4.5-.9.8-1.6.8-.5 0-.9-.2-1.2-.5s-.5-.7-.5-1.2h4.1v-.6c0-1-.2-1.8-.7-2.3s-1-1-1.8-1zm1.3 2.7H157c.1-.5.2-.9.5-1.1s.6-.4.9-.4c.4 0 .7.1.9.4s.3.6.4 1.1h0zm5.3-2.7c-.6 0-1.1.3-1.4.8v-.7h-1.4v6.3h1.4v-4.3c.2-.5.7-.8 1.3-.8h.6v-1.3c-.1.1-.3 0-.5 0z" fill="#231f20"/></svg>