<svg xmlns="http://www.w3.org/2000/svg" width='240' height='200' xmlns:xlink="http://www.w3.org/1999/xlink" viewBox="0 0 250 207"><path d="M79.2 21.9H21.1c-1.1 0-2 .9-2 2v59.8c0 1.1.9 2 2 2h58.1c1.1 0 2-.9 2-2V23.9c0-1.1-.9-2-2-2zm74.8 0H96c-1.1 0-2 .9-2 2v59.8c0 1.1.9 2 2 2h58c1.1 0 2-.9 2-2V23.9c0-1.1-.9-2-2-2zm74.9 0h-58.1c-1.1 0-2 .9-2 2v59.8c0 1.1.9 2 2 2h58.1c1.1 0 2-.9 2-2V23.9c0-1.1-.9-2-2-2zM79.2 104.2H21.1c-1.1 0-2 .9-2 2V166c0 1.1.9 2 2 2h58.1c1.1 0 2-.9 2-2v-59.8c0-1.1-.9-2-2-2zm74.8 0H96c-1.1 0-2 .9-2 2V166c0 1.1.9 2 2 2h58c1.1 0 2-.9 2-2v-59.8c0-1.1-.9-2-2-2zm74.9 0h-58.1c-1.1 0-2 .9-2 2V166c0 1.1.9 2 2 2h58.1c1.1 0 2-.9 2-2v-59.8c0-1.1-.9-2-2-2z" fill="#dedee0"/><path d="M79.2 16.9H21.1c-1.1 0-2 .9-2 2v41.4h62.1V18.9c0-1.1-.9-2-2-2zM65.1 67.2c.5 0 .9-.4.9-.9s-.4-.9-.9-.9H35.2c-.5 0-.9.4-.9.9s.4.9.9.9h29.9zm-39.2 5.6a.47.47 0 0 0 .5.5H74a.5.5 0 1 0 0-1H26.4c-.3.1-.5.3-.5.5zm.5 4.2H74a.47.47 0 0 0 .5-.5c0-.3-.3-.5-.5-.5H26.4a.5.5 0 1 0 0 1zm12.1 2.7a.5.5 0 1 0 0 1h23.3a.5.5 0 1 0 0-1H38.5zM154 16.9H96c-1.1 0-2 .9-2 2v41.4h62V18.9c0-1.1-.9-2-2-2zm-14.1 50.3c.5 0 .9-.4.9-.9s-.4-.9-.9-.9H110c-.5 0-.9.4-.9.9s.4.9.9.9h29.9zm-39.2 5.6a.47.47 0 0 0 .5.5h47.6a.5.5 0 1 0 0-1h-47.6c-.2.1-.5.3-.5.5zm.5 4.2h47.6a.47.47 0 0 0 .5-.5c0-.3-.3-.5-.5-.5h-47.6a.47.47 0 0 0-.5.5c0 .3.3.5.5.5zm12.1 2.7a.5.5 0 1 0 0 1h23.3a.5.5 0 1 0 0-1h-23.3zm115.6-62.8h-58.1c-1.1 0-2 .9-2 2v41.4h62.1V18.9c0-1.1-.9-2-2-2zm-14.1 50.3c.5 0 .9-.4.9-.9s-.4-.9-.9-.9h-29.9c-.5 0-.9.4-.9.9s.4.9.9.9h29.9zm-39.2 5.6a.47.47 0 0 0 .5.5h47.6a.5.5 0 1 0 0-1H176c-.2.1-.4.3-.4.5zm.4 4.2h47.6a.5.5 0 1 0 0-1H176a.47.47 0 0 0-.5.5c0 .3.3.5.5.5zm12.2 2.7a.5.5 0 1 0 0 1h23.3a.5.5 0 1 0 0-1h-23.3zm-109 19.6H21.1c-1.1 0-2 .9-2 2v41.4h62.1v-41.4a1.94 1.94 0 0 0-2-2zm-14.1 50.3c.5 0 .9-.4.9-.9s-.4-.9-.9-.9H35.2c-.5 0-.9.4-.9.9s.4.9.9.9h29.9zm8.9 5.1H26.4a.5.5 0 1 0 0 1H74a.47.47 0 0 0 .5-.5c0-.3-.3-.5-.5-.5zm0 3.7H26.4a.5.5 0 1 0 0 1H74a.47.47 0 0 0 .5-.5c0-.3-.3-.5-.5-.5zM61.8 162H38.5a.5.5 0 1 0 0 1h23.3a.5.5 0 1 0 0-1zM154 99.3H96c-1.1 0-2 .9-2 2v41.4h62v-41.4a1.94 1.94 0 0 0-2-2zm-14.1 50.3c.5 0 .9-.4.9-.9s-.4-.9-.9-.9H110c-.5 0-.9.4-.9.9s.4.9.9.9h29.9zm8.9 5.1h-47.6a.5.5 0 1 0 0 1h47.6a.47.47 0 0 0 .5-.5c0-.3-.3-.5-.5-.5zm0 3.7h-47.6a.5.5 0 1 0 0 1h47.6a.47.47 0 0 0 .5-.5c0-.3-.3-.5-.5-.5zm-12.1 3.6h-23.3a.5.5 0 1 0 0 1h23.3a.47.47 0 0 0 .5-.5c0-.3-.3-.5-.5-.5zm92.2-62.7h-58.1c-1.1 0-2 .9-2 2v41.4h62.1v-41.4a1.94 1.94 0 0 0-2-2zm-14.1 50.3c.5 0 .9-.4.9-.9s-.4-.9-.9-.9h-29.9c-.5 0-.9.4-.9.9s.4.9.9.9h29.9zm8.8 5.1H176a.5.5 0 1 0 0 1h47.6a.5.5 0 1 0 0-1zm0 3.7H176a.5.5 0 1 0 0 1h47.6a.5.5 0 1 0 0-1zm-12.1 3.6h-23.3a.5.5 0 1 0 0 1h23.3a.5.5 0 1 0 0-1z" fill="#8796a1"/><g fill="#fff"><use xlink:href="#B"/><path d="M67.4 25.3H32.9c-1 0-1.7.8-1.7 1.7v23.2c0 .5.2.9.5 1.2v.1h.1c.3.3.7.5 1.2.5h34.5c.5 0 .9-.2 1.2-.5h.1v-.1c.3-.3.5-.7.5-1.2V27c-.1-.9-.9-1.7-1.9-1.7zm.8 23.2l-10.6-15a2.25 2.25 0 0 0-3.6 0L46.6 44l5.6 5.6c.2.2.2.5 0 .7-.1.1-.2.1-.3.1s-.2 0-.3-.1l-9-9c-.9-.9-2.3-.9-3.1 0l-7.3 7.4V27c0-.4.3-.8.8-.8h34.5c.4 0 .8.3.8.8v21.5z"/><use xlink:href="#B" x="74.9"/><path d="M142.3 25.3h-34.5c-1 0-1.7.8-1.7 1.7v23.2c0 .5.2.9.5 1.2v.1h.1c.3.3.7.5 1.2.5h34.5c.5 0 .9-.2 1.2-.5h.1v-.1c.3-.3.5-.7.5-1.2V27c-.2-.9-1-1.7-1.9-1.7zm.7 23.2l-10.6-15a2.25 2.25 0 0 0-3.6 0L121.4 44l5.6 5.6c.2.2.2.5 0 .7-.1.1-.2.1-.3.1s-.2 0-.3-.1l-9-9c-.9-.9-2.3-.9-3.1 0l-7.3 7.4V27c0-.4.3-.8.8-.8h34.5c.4 0 .8.3.8.8v21.5z"/><use xlink:href="#B" x="149.7"/><path d="M217.1 25.3h-34.5c-1 0-1.7.8-1.7 1.7v23.2c0 .5.2.9.5 1.2v.1h.1c.3.3.7.5 1.2.5h34.5c.5 0 .9-.2 1.2-.5h.1v-.1c.3-.3.5-.7.5-1.2V27c-.2-.9-.9-1.7-1.9-1.7zm.8 23.2l-10.6-15a2.25 2.25 0 0 0-3.6 0L196.2 44l5.6 5.6c.2.2.2.5 0 .7-.1.1-.2.1-.3.1s-.2 0-.3-.1l-9-9c-.9-.9-2.3-.9-3.1 0l-7.3 7.4V27c0-.4.3-.8.8-.8h34.5c.4 0 .8.3.8.8v21.5z"/><use xlink:href="#B" y="82.4"/><path d="M67.4 107.6H32.9c-1 0-1.7.8-1.7 1.7v23.2c0 .5.2.9.5 1.2v.1h.1c.3.3.7.5 1.2.5h34.5c.5 0 .9-.2 1.2-.5h.1v-.1c.3-.3.5-.7.5-1.2v-23.2c-.1-.9-.9-1.7-1.9-1.7zm.8 23.2l-10.6-15a2.25 2.25 0 0 0-3.6 0l-7.5 10.5 5.6 5.6c.2.2.2.5 0 .7-.1.1-.2.1-.3.1s-.2 0-.3-.1l-9-9c-.9-.9-2.3-.9-3.1 0l-7.3 7.4v-21.7c0-.4.3-.8.8-.8h34.5c.4 0 .8.3.8.8v21.5z"/><use xlink:href="#B" x="74.9" y="82.4"/><path d="M142.3 107.6h-34.5c-1 0-1.7.8-1.7 1.7v23.2c0 .5.2.9.5 1.2v.1h.1c.3.3.7.5 1.2.5h34.5c.5 0 .9-.2 1.2-.5h.1v-.1c.3-.3.5-.7.5-1.2v-23.2c-.2-.9-1-1.7-1.9-1.7zm.7 23.2l-10.6-15a2.25 2.25 0 0 0-3.6 0l-7.5 10.5 5.6 5.6c.2.2.2.5 0 .7-.1.1-.2.1-.3.1s-.2 0-.3-.1l-9-9c-.9-.9-2.3-.9-3.1 0l-7.3 7.4v-21.7c0-.4.3-.8.8-.8h34.5c.4 0 .8.3.8.8v21.5z"/><use xlink:href="#B" x="149.7" y="82.4"/><path d="M217.1 107.6h-34.5c-1 0-1.7.8-1.7 1.7v23.2c0 .5.2.9.5 1.2v.1h.1c.3.3.7.5 1.2.5h34.5c.5 0 .9-.2 1.2-.5h.1v-.1c.3-.3.5-.7.5-1.2v-23.2c-.2-.9-.9-1.7-1.9-1.7zm.8 23.2l-10.6-15a2.25 2.25 0 0 0-3.6 0l-7.5 10.5 5.6 5.6c.2.2.2.5 0 .7-.1.1-.2.1-.3.1s-.2 0-.3-.1l-9-9c-.9-.9-2.3-.9-3.1 0l-7.3 7.4v-21.7c0-.4.3-.8.8-.8h34.5c.4 0 .8.3.8.8v21.5z"/></g><g fill="#231f20"><path d="M75.7 186.3h1.8v1.7c-.3.3-.9.5-1.6.5s-1.2-.3-1.6-.8-.6-1.2-.6-2.1v-.7c0-.9.2-1.6.5-2.1s.9-.7 1.5-.7c1 0 1.6.5 1.8 1.5H79c-.1-.9-.4-1.6-1-2s-1.3-.7-2.3-.7c-1.1 0-2 .4-2.6 1.1s-.9 1.7-.9 3v.7a4.65 4.65 0 0 0 .5 2.1c.3.6.7 1.1 1.3 1.4s1.2.5 1.9.5 1.3-.1 1.9-.3 1-.5 1.3-.9v-3.3h-3.2v1.1z"/><use xlink:href="#C"/><path d="M89.9 183c-.7 0-1.3.3-1.7.8l-.1-.6h-1.3v8.8h1.4v-3c.4.5 1 .7 1.7.7.8 0 1.3-.3 1.8-.9s.7-1.4.7-2.3v-.1c0-1-.2-1.8-.7-2.4s-1-1-1.8-1zm.7 4.9c-.3.4-.6.5-1.1.5-.6 0-1-.2-1.3-.7v-2.8c.3-.5.7-.7 1.3-.7.5 0 .8.2 1.1.6s.4.9.4 1.5c0 .7-.1 1.3-.4 1.6zm42.1-.1l-2.1-6.7h-1.7l3.1 8.6h1.4l3.1-8.6h-1.6zm7-4.6c-.5 0-1 .1-1.5.4s-.8.7-1 1.2-.4 1.1-.4 1.7v.2c0 .9.3 1.7.8 2.3s1.3.9 2.2.9c.5 0 1-.1 1.4-.3s.8-.5 1-.9l-.8-.7c-.4.5-.9.8-1.6.8-.5 0-.9-.2-1.2-.5s-.5-.7-.5-1.2h4.1v-.6c0-1-.2-1.8-.7-2.3s-.9-1-1.8-1zm1.3 2.7h-2.7c.1-.5.2-.9.5-1.1s.6-.4.9-.4c.4 0 .7.1.9.4s.3.6.4 1.1h0zm3.9-1.9v-.7h-1.4v6.3h1.4v-4.3c.2-.5.7-.8 1.3-.8h.6v-1.3c-.1-.1-.3-.1-.5-.1-.6.1-1 .4-1.4.9zm5.1 4.5c-.1-.1-.1-.3-.1-.5v-3.5h1.1v-1.1h-1.1v-1.5h-1.4v1.5h-1v1.1h1v3.6c0 1.2.5 1.8 1.6 1.8.3 0 .6 0 .9-.1v-1.1c-.2 0-.3.1-.5.1-.3-.2-.4-.2-.5-.3zm2.1-5.2h1.4v6.3h-1.4zm.7-2.4c-.3 0-.5.1-.6.2s-.2.3-.2.5.1.4.2.5.3.2.6.2.5-.1.6-.2.2-.3.2-.5-.1-.4-.2-.5-.3-.2-.6-.2zm3.8 4c.2-.3.6-.5 1.1-.5.4 0 .7.1.9.4s.4.5.4.9h1.3c0-.7-.3-1.3-.7-1.7s-1.1-.7-1.8-.7c-.9 0-1.6.3-2.1.9s-.8 1.4-.8 2.3v.1c0 1 .3 1.8.8 2.4s1.2.9 2.1.9c.5 0 .9-.1 1.3-.3a2.36 2.36 0 0 0 .9-.8c.2-.3.4-.7.4-1.1h-1.3c0 .3-.1.6-.4.8s-.5.3-.9.3c-.5 0-.8-.2-1.1-.5s-.4-.9-.4-1.5v-.2c-.1-.9.1-1.4.3-1.7zm9.8.5c0-.7-.2-1.2-.7-1.6s-1-.6-1.8-.6c-.5 0-.9.1-1.3.3s-.7.4-.9.7a1.69 1.69 0 0 0-.3 1h1.4c0-.2.1-.5.3-.6s.5-.2.8-.2c.4 0 .7.1.8.3s.3.5.3.8v.4h-.9c-.9 0-1.7.2-2.2.5s-.8.9-.8 1.6c0 .5.2 1 .6 1.3s.9.5 1.6.5a2.19 2.19 0 0 0 1.7-.7c0 .3.1.5.2.6h1.5v-.1c-.2-.3-.2-.8-.2-1.4v-2.8zm-1.5 2.5c-.1.2-.3.4-.6.6s-.5.2-.8.2-.5-.1-.7-.2-.3-.4-.3-.7.1-.6.4-.8.7-.3 1.2-.3h.8v1.2zm3-7.2h1.4v9h-1.4zm9.5 5.7h1.8v1.7c-.3.3-.9.5-1.6.5s-1.2-.3-1.6-.8-.6-1.2-.6-2.1v-.7c0-.9.2-1.6.5-2.1s.9-.7 1.5-.7c1 0 1.6.5 1.8 1.5h1.5c-.1-.9-.4-1.6-1-2s-1.3-.7-2.3-.7c-1.1 0-2 .4-2.6 1.1s-.9 1.7-.9 3v.7a4.65 4.65 0 0 0 .5 2.1c.3.6.7 1.1 1.3 1.4s1.2.5 1.9.5 1.3-.1 1.9-.3 1-.5 1.3-.9v-3.3h-3.2v1.1z"/><use xlink:href="#C" x="101.7" y="0.2"/><path d="M193.5 184.1c-.4-.6-1-.9-1.8-.9-.7 0-1.3.3-1.7.8l-.1-.6h-1.3v8.8h1.4v-3c.4.5 1 .7 1.7.7.8 0 1.3-.3 1.8-.9s.7-1.4.7-2.3v-.1c-.1-1.1-.3-1.9-.7-2.5zm-1.2 4c-.3.4-.6.5-1.1.5-.6 0-1-.2-1.3-.7v-2.8c.3-.5.7-.7 1.3-.7.5 0 .8.2 1.1.6s.4.9.4 1.5c0 .7-.1 1.2-.4 1.6z"/></g><path d="M83.1 18h9.1v66.5h-9.1zm74.9 0h9.1v66.5H158zm-75.2 82.2h9.1v66.5h-9.1z" fill="#ffd9f1" stroke="#f21197" stroke-miterlimit="10"/><path d="M229.909 88.17v9.1h-208.2v-9.1z" fill="#ffdccc" stroke="#ff5a08" stroke-miterlimit="10"/><g fill="#ffd9f1" stroke="#f21197"><path d="M158 100.2h9.1v66.5H158z" stroke-miterlimit="10"/><circle cx="62.3" cy="185.7" r="5.2"/></g><circle cx="120.5" cy="185.7" r="5.2" fill="#ffdccc" stroke="#ff5a08"/><defs ><path id="B" d="M40.8 30.5a2.69 2.69 0 1 0 0 5.4 2.69 2.69 0 1 0 0-5.4z"/><path id="C" d="M85.4 185.2c0-.7-.2-1.2-.7-1.6s-1-.6-1.8-.6c-.5 0-.9.1-1.3.3s-.7.4-.9.7a1.69 1.69 0 0 0-.3 1h1.4c0-.2.1-.5.3-.6s.5-.2.8-.2c.4 0 .7.1.8.3s.3.5.3.8v.4h-.9c-.9 0-1.7.2-2.2.5s-.8.9-.8 1.6c0 .5.2 1 .6 1.3s.9.5 1.6.5a2.19 2.19 0 0 0 1.7-.7c0 .3.1.5.2.6h1.5v-.1c-.2-.3-.2-.8-.2-1.4v-2.8zm-1.4 2.5c-.1.2-.3.4-.6.6s-.5.2-.8.2-.5-.1-.7-.2-.3-.4-.3-.7.1-.6.4-.8.7-.3 1.2-.3h.8v1.2z"/></defs></svg>