<svg xmlns="http://www.w3.org/2000/svg" width='240' height='200' xmlns:xlink="http://www.w3.org/1999/xlink" viewBox="0 0 250 207"><g fill="#231f20"><path d="M23.1 23.5l-2.2-6.6h-1.6l3.1 8.5h1.4l3.1-8.5h-1.6zm9.3-2.4c0-.7-.2-1.2-.7-1.6s-1-.6-1.8-.6c-.5 0-.9.1-1.3.3s-.7.4-.9.7a1.69 1.69 0 0 0-.3 1h1.4c0-.2.1-.5.3-.6s.5-.2.8-.2c.4 0 .7.1.8.3s.3.5.3.8v.4h-.9c-.9 0-1.7.2-2.2.5s-.8.9-.8 1.6c0 .5.2 1 .6 1.3s.9.5 1.6.5a2.19 2.19 0 0 0 1.7-.7c0 .3.1.5.2.6h1.5v-.1c-.2-.3-.2-.8-.2-1.4v-2.8zM31 23.6c-.1.2-.3.4-.6.6s-.5.2-.8.2-.5-.1-.7-.2-.3-.4-.3-.7.1-.6.4-.8.7-.3 1.2-.3h.8v1.2zm4.3-3.8v-.7h-1.4v6.3h1.4V21c.2-.5.7-.8 1.3-.8h.6v-1.3c-.1-.1-.3-.1-.5-.1-.6.1-1 .4-1.4 1zm3.7-3.2c-.3 0-.5.1-.6.2s-.2.3-.2.5.1.4.2.5.3.2.6.2.5-.1.6-.2.2-.3.2-.5-.1-.4-.2-.5-.4-.2-.6-.2zm-.8 2.4h1.4v6.3h-1.4zm8 2.1c0-.7-.2-1.2-.7-1.6s-1-.6-1.8-.6c-.5 0-.9.1-1.3.3s-.7.4-.9.7a1.69 1.69 0 0 0-.3 1h1.4c0-.2.1-.5.3-.6s.5-.2.8-.2c.4 0 .7.1.8.3s.3.5.3.8v.4h-.9c-.9 0-1.7.2-2.2.5s-.7.8-.7 1.5c0 .5.2 1 .6 1.3s.9.5 1.6.5a2.19 2.19 0 0 0 1.7-.7c0 .3.1.5.2.6h1.5v-.1c-.2-.3-.2-.8-.2-1.4v-2.7zm-1.4 2.5c-.1.2-.3.4-.6.6s-.5.2-.8.2-.5-.1-.7-.2-.3-.4-.3-.7.1-.6.4-.8.7-.3 1.2-.3h.8v1.2z"/><use xlink:href="#B"/><path d="M54.6 16.4H56v9h-1.4zm5.6 2.5c-.5 0-1 .1-1.5.4s-.8.7-1 1.2-.4 1.1-.4 1.7v.2c0 .9.3 1.7.8 2.3s1.3.9 2.2.9c.5 0 1-.1 1.4-.3s.8-.5 1-.9l-.7-.8c-.4.5-.9.8-1.6.8-.5 0-.9-.2-1.2-.5s-.5-.7-.5-1.2h4.1v-.6c0-1-.2-1.8-.7-2.3s-1.1-.9-1.9-.9zm1.3 2.7h-2.7c.1-.5.2-.9.5-1.1s.6-.4.9-.4c.4 0 .7.1.9.4s.3.6.4 1.1h0zm12.3 1.7l-1.6-6.4h-1.3l-1.6 6.4-1.3-6.4h-1.5l2 8.5h1.4l1.7-6.2 1.6 6.2h1.4l2-8.5h-1.5z"/><use xlink:href="#C"/><path d="M77.6 19H79v6.3h-1.4zm6.8.6c-.4-.5-1-.7-1.6-.7-.8 0-1.4.3-1.8.9s-.7 1.4-.7 2.4.2 1.8.7 2.4 1.1.9 1.8.9 1.3-.3 1.7-.8l.1.7h1.3v-9h-1.4v3.2zm0 4c-.3.5-.7.8-1.3.8-.5 0-.8-.2-1.1-.5s-.4-.9-.4-1.5c0-.7.1-1.3.4-1.6s.6-.5 1.1-.5c.6 0 1 .3 1.3.8v2.5zm4.9.6c-.1-.1-.1-.3-.1-.5v-3.5h1.1V19h-1.1v-1.5h-1.4V19h-1v1.1h1v3.6c0 1.2.5 1.8 1.6 1.8.3 0 .6 0 .9-.1v-1.1c-.2 0-.3.1-.5.1-.2-.1-.4-.1-.5-.2z"/><use xlink:href="#D"/><path d="M23.1 120.8l-2.2-6.7h-1.6l3.1 8.6h1.4l3.1-8.6h-1.6z"/><use xlink:href="#E"/><path d="M35.3 117v-.7h-1.4v6.3h1.4v-4.3c.2-.5.7-.8 1.3-.8h.6v-1.3c-.1-.1-.3-.1-.5-.1-.6.1-1 .4-1.4.9zm3.7-3.1c-.3 0-.5.1-.6.2s-.2.3-.2.5.1.4.2.5.3.2.6.2.5-.1.6-.2.2-.3.2-.5-.1-.4-.2-.5-.4-.2-.6-.2zm-.8 2.4h1.4v6.3h-1.4z"/><use xlink:href="#E" x="13.8"/><use xlink:href="#B" y="97.3"/><path d="M54.6 113.7H56v9h-1.4zm5.6 2.5c-.5 0-1 .1-1.5.4s-.8.7-1 1.2-.4 1.1-.4 1.7v.2c0 .9.3 1.7.8 2.3s1.3.9 2.2.9c.5 0 1-.1 1.4-.3s.8-.5 1-.9l-.8-.7c-.4.5-.9.8-1.6.8-.5 0-.9-.2-1.2-.5s-.5-.7-.5-1.2h4.1v-.6c0-1-.2-1.8-.7-2.3s-1-1-1.8-1zm1.3 2.7h-2.7c.1-.5.2-.9.5-1.1s.6-.4.9-.4c.4 0 .7.1.9.4s.3.6.4 1.1h0zm12.3 1.7l-1.6-6.5h-1.3l-1.6 6.5-1.3-6.5h-1.5l2 8.6h1.4l1.7-6.3 1.6 6.3h1.4l2-8.6h-1.5zm3.8-4.3H79v6.3h-1.4z"/><use xlink:href="#C" y="97.3"/><path d="M84.4 116.9c-.4-.5-1-.7-1.6-.7-.8 0-1.4.3-1.8.9s-.7 1.4-.7 2.4.2 1.8.7 2.4 1.1.9 1.8.9 1.3-.3 1.7-.8l.1.7h1.3v-9h-1.4v3.2zm0 3.9c-.3.5-.7.8-1.3.8-.5 0-.8-.2-1.1-.5s-.4-.9-.4-1.5c0-.7.1-1.3.4-1.6s.6-.5 1.1-.5c.6 0 1 .3 1.3.8v2.5zm4.9.6c-.1-.1-.1-.3-.1-.5v-3.5h1.1v-1.1h-1.1v-1.5h-1.4v1.5h-1v1.1h1v3.6c0 1.2.5 1.8 1.6 1.8.3 0 .6 0 .9-.1v-1.1c-.2 0-.3.1-.5.1-.2-.1-.4-.1-.5-.3z"/><use xlink:href="#D" y="97.3"/></g><use xlink:href="#F" fill="#ed6f6f"/><use xlink:href="#F" y="97.1" fill="#00c263"/><g fill="#8796a1"><use xlink:href="#G"/><path d="M214.2 79.2V41.4c0-1-1.1-1.7-2.5-1.7h-69.3c-1.4 0-2.5.8-2.5 1.7v37.9c0 1 1.1 1.7 2.5 1.7h69.3c1.4 0 2.5-.8 2.5-1.8zM93.6 88h31.8c1.1 0 2-.9 2-2V41.4c0-1.1-.9-2-2-2H93.6c-1.1 0-2 .9-2 2V86c0 1.1.9 2 2 2z"/><use xlink:href="#G" y="96.4"/><path d="M225.3 136.1H147c-1.5 0-2.8 1-2.8 2.3v49.7c0 1.2 1.2 2.3 2.8 2.3h78.3c1.5 0 2.8-1 2.8-2.3v-49.7c0-1.2-1.2-2.3-2.8-2.3zm-95.5-.2H93.6c-1.1 0-2 .9-2 2v50.6c0 1.1.9 2 2 2h36.2c1.1 0 2-.9 2-2v-50.6c0-1.1-.9-2-2-2z"/></g><g fill="#fff"><path d="M44.7 59.8a2.65 2.65 0 0 0-2.6 2.6 2.65 2.65 0 0 0 2.6 2.6 2.65 2.65 0 0 0 2.6-2.6 2.65 2.65 0 0 0-2.6-2.6zm21.2-6H32.5c-.9 0-1.7.8-1.7 1.7v22.4c0 .5.2.9.5 1.2v.1h.1c.3.3.7.5 1.2.5h33.5c.5 0 .9-.2 1.2-.5h.1v-.1c.3-.3.5-.7.5-1.2V55.5c-.3-1-1.1-1.7-2-1.7zm.8 22.4L56.4 61.7c-.8-1.2-2.6-1.2-3.5 0L45.7 72l5.4 5.4c.2.2.2.5 0 .7-.1.1-.2.1-.3.1s-.2 0-.3-.1l-8.7-8.7a2.18 2.18 0 0 0-3 0l-7.1 7.2V55.5a.68.68 0 0 1 .7-.7h33.5a.68.68 0 0 1 .7.7v20.7zm40.6-14.1c.9 0 1.7-.7 1.7-1.7s-.7-1.7-1.7-1.7c-.9 0-1.7.7-1.7 1.7s.8 1.7 1.7 1.7zm13.1 9.9c.3 0 .5-.1.7-.3h0 0a1.08 1.08 0 0 0 .3-.7V56.7a1.11 1.11 0 0 0-1.1-1.1H99.2a1.11 1.11 0 0 0-1.1 1.1v14.2c0 .3.1.5.3.7h0 0a1.08 1.08 0 0 0 .7.3h21.3zM98.7 56.7a.47.47 0 0 1 .5-.5h21.2a.47.47 0 0 1 .5.5v13.2l-6.5-9.2a1.31 1.31 0 0 0-2.2 0l-4.6 6.5 3.4 3.4c.1.1.1.3 0 .4s-.1.1-.2.1-.2 0-.2-.1l-5.5-5.5c-.5-.5-1.4-.5-1.9 0L98.7 70V56.7zm74.2-4.2a2.65 2.65 0 0 0-2.6 2.6 2.65 2.65 0 0 0 2.6 2.6 2.65 2.65 0 0 0 2.6-2.6c0-1.4-1.1-2.6-2.6-2.6zm20.9-5.2h-33.5c-.9 0-1.7.8-1.7 1.7v22.4c0 .5.2.9.5 1.2v.1h.1c.3.3.7.5 1.2.5h33.5c.5 0 .9-.2 1.2-.5h.1v-.1c.3-.3.5-.7.5-1.2V49c-.2-.9-1-1.7-1.9-1.7zm.7 22.5l-10.3-14.5c-.8-1.2-2.6-1.2-3.5 0l-7.2 10.2 5.4 5.4c.2.2.2.5 0 .7-.1.1-.2.1-.3.1s-.2 0-.3-.1l-8.7-8.7a2.18 2.18 0 0 0-3 0l-7.1 7.2V49a.68.68 0 0 1 .7-.7h33.5a.68.68 0 0 1 .7.7v20.8zM44.7 156.3a2.65 2.65 0 0 0-2.6 2.6 2.65 2.65 0 0 0 2.6 2.6 2.65 2.65 0 0 0 2.6-2.6 2.65 2.65 0 0 0-2.6-2.6zm21.2-6H32.5c-.9 0-1.7.8-1.7 1.7v22.4c0 .5.2.9.5 1.2v.1h.1c.3.3.7.5 1.2.5h33.5c.5 0 .9-.2 1.2-.5h.1v-.1c.3-.3.5-.7.5-1.2V152c-.3-1-1.1-1.7-2-1.7zm.8 22.4l-10.3-14.5c-.8-1.2-2.6-1.2-3.5 0l-7.2 10.2 5.4 5.4c.2.2.2.5 0 .7-.1.1-.2.1-.3.1s-.2 0-.3-.1l-8.7-8.7a2.18 2.18 0 0 0-3 0l-7.1 7.2v-21.1a.68.68 0 0 1 .7-.7h33.5a.68.68 0 0 1 .7.7v20.8zm42.6-15c-1 0-1.9.8-1.9 1.9 0 1 .8 1.9 1.9 1.9 1 0 1.9-.8 1.9-1.9-.1-1.1-.9-1.9-1.9-1.9zm14.6-3.6h-23.8c-.7 0-1.2.5-1.2 1.2v16c0 .3.1.6.3.8h0 0c.2.2.5.3.8.3h23.8c.3 0 .6-.1.8-.3h0 0c.2-.2.3-.5.3-.8v-16c.2-.7-.3-1.2-1-1.2zm.5 16l-7.3-10.3c-.6-.8-1.9-.8-2.5 0l-5.1 7.3 3.9 3.9c.1.1.1.3 0 .5-.1.1-.2.1-.2.1-.1 0-.2 0-.2-.1l-6.2-6.2c-.6-.6-1.6-.6-2.1 0l-5 5.1v-15a.47.47 0 0 1 .5-.5H124a.47.47 0 0 1 .5.5v14.7zm57.1-15.6a3.01 3.01 0 0 0-3 3 3.01 3.01 0 0 0 3 3 3.01 3.01 0 0 0 3-3c-.1-1.7-1.4-3-3-3zm23.6-5.8h-37.8c-1.1 0-1.9.9-1.9 1.9V176c0 .5.2 1 .5 1.3v.1h.1c.3.3.8.5 1.3.5h37.8c.5 0 1-.2 1.3-.5h.1v-.1c.3-.3.5-.8.5-1.3v-25.4c0-1.1-.9-1.9-1.9-1.9zm.8 25.4l-11.6-16.4c-1-1.3-3-1.3-3.9 0l-8.2 11.5 6.1 6.1c.2.2.2.5 0 .8-.1.1-.2.2-.4.2a.76.76 0 0 1-.4-.2l-9.8-9.8c-.9-.9-2.5-.9-3.4 0l-8 8.1v-23.8c0-.5.4-.8.8-.8h37.8c.5 0 .8.4.8.8v23.5zm-93-147.6h10.2c.6 0 1-.5 1-1v-7.2c0-.6-.5-1-1-1h-10.2c-.6 0-1 .5-1 1v7.2c-.1.5.4 1 1 1zm22.2-3.1c-.1 0-.2.1-.4.1h-.3c-.1 0-.2-.1-.3-.1l-.2-.2c0-.1-.1-.2-.1-.3h-.7c0 .2 0 .4.1.6a.78.78 0 0 0 .4.4c.2.1.3.2.5.2.2.1.4.1.6.1s.4 0 .6-.1.3-.1.5-.2l.3-.3c.1-.1.1-.3.1-.5s0-.3-.1-.4-.1-.2-.2-.3-.2-.2-.4-.3-.4-.2-.6-.2c-.1 0-.3-.1-.4-.1s-.2-.1-.3-.1l-.2-.2c0-.1-.1-.1-.1-.2s0-.2.1-.3.1-.2.2-.2.2-.1.4-.1.3 0 .4.1.2.1.3.2.1.2.1.3h.7c0-.2-.1-.4-.2-.6s-.3-.3-.5-.4-.5-.2-.8-.2c-.2 0-.4 0-.6.1s-.3.1-.5.2l-.3.3c-.1.1-.1.3-.1.4 0 .2 0 .3.1.4l.3.3c.1.1.3.2.4.3.2.1.3.1.5.2s.3.1.4.2c.1 0 .2.1.3.2s.1.1.1.2v.2c0 .1 0 .2-.1.3.2-.1.1-.1 0 0zm12.7.5h1.9v-.5h-1.9v-1.3h1.6v-.5h-1.6v-1.1h1.9v-.6h-1.9-.2-.5v4h.5zm-16-4h.7v4h-.7z"/><use xlink:href="#H"/><path d="M144.7 23.9h1.8v-.5h-1.8v-3.5h-.7v4h.5z"/><use xlink:href="#H" x="-22.1"/><path d="M137.4 23h1.5l.3.9h.7l-1.5-4h-.2-.3-.2l-1.5 4h.7l.5-.9zm.8-2.3l.6 1.7h-1.2l.6-1.7zm3 3.2h.8c.3 0 .5 0 .7-.1s.4-.2.5-.4.2-.4.2-.6 0-.3-.1-.5c-.1-.1-.2-.3-.3-.3-.1-.1-.2-.1-.3-.1h.2c.2-.1.3-.2.3-.3.1-.1.1-.3.1-.5s0-.3-.1-.5l-.3-.3a.76.76 0 0 0-.4-.2c-.2 0-.4-.1-.6-.1h-1.4v4h.3.4zm0-3.4h.7c.2 0 .3 0 .4.1.1 0 .2.1.2.2.1.1.1.2.1.3s0 .2-.1.3l-.2.2c-.1 0-.2.1-.4.1h-.6 0v-1.2zm0 1.6h0 .8c.2 0 .3 0 .4.1s.2.1.2.2.1.2.1.3 0 .2-.1.3-.1.2-.2.2c-.1.1-.2.1-.4.1h-.8v-1.2zm-6.8 95.4v-.5h-1.9-.2-.5v4h.5.2 1.9v-.6h-1.9v-1.2h1.7v-.6h-1.7v-1.1zm.9-.5h-.3v4h.3.4.5c.3 0 .5 0 .7-.1s.4-.2.6-.4.3-.4.4-.6.1-.5.1-.8v-.2c0-.3 0-.5-.1-.8-.1-.2-.2-.4-.4-.6s-.3-.3-.6-.4c-.2-.1-.5-.1-.7-.1h-.5-.4zm1.4.6c.1.1.3.1.3.3a.76.76 0 0 1 .2.4c0 .2.1.4.1.6v.2c0 .3 0 .5-.1.7s-.2.4-.4.5-.4.2-.6.2h-.5v-2.9h.5c.2-.1.3 0 .5 0zm-19.8-.1v-.5H115h-.2-.5v4h.5.2 1.9v-.6H115v-1.2h1.6v-.6H115v-1.1zm5.9-.5h-.2l-1.5 4h.7l.3-.9h1.5l.3.9h.7l-1.5-4h-.2-.1zm.7 2.5h-1.2l.6-1.7.6 1.7zm5.3-2.5v4h.5.2 1.8v-.6h-1.8V117zm-10.6 0h-.7v4h.7v-2.9l1.7 2.9h.7v-4h-.6v2.8zm9.7 1.5c.1-.1.1-.3.1-.5s0-.3-.1-.5l-.3-.3a.76.76 0 0 0-.4-.2c-.2 0-.4-.1-.6-.1h-1.4v4h.3.4.8c.3 0 .5 0 .7-.1s.4-.2.5-.4.2-.4.2-.6 0-.3-.1-.5c-.1-.1-.2-.3-.3-.3-.1-.1-.2-.1-.3-.1h.2c.1-.1.2-.3.3-.4zm-2-1h.7c.2 0 .3 0 .4.1.1 0 .2.1.2.2.1.1.1.2.1.3s0 .2-.1.3l-.2.2c-.1 0-.2.1-.4.1h-.6 0v-1.2zm1.5 2.3c0 .1 0 .2-.1.3s-.1.2-.2.2c-.1.1-.2.1-.4.1h-.8v-1.3h0 .8c.2 0 .3 0 .4.1s.2.1.2.2c.1.2.1.3.1.4zm26.3-5.5h-10.2c-.6 0-1 .5-1 1v7.2c0 .6.5 1 1 1h10.2c.6 0 1-.5 1-1v-7.2c.1-.5-.4-1-1-1z"/></g><defs ><path id="B" d="M50.8 18.9a2.19 2.19 0 0 0-1.7.7v-3.3h-1.4v9H49l.1-.7c.4.5 1 .8 1.7.8.8 0 1.4-.3 1.8-.9s.7-1.4.7-2.3v-.1c0-1-.2-1.8-.7-2.4s-1-.8-1.8-.8zm1.1 3.4c0 .7-.1 1.2-.4 1.5s-.6.5-1 .5c-.6 0-1.1-.3-1.3-.8v-2.6c.2-.5.7-.8 1.3-.8.5 0 .8.2 1.1.5s.4.9.4 1.5v.2z"/><path id="C" d="M78.3 16.6c-.3 0-.5.1-.6.2s-.2.3-.2.5.1.4.2.5.3.2.6.2.5-.1.6-.2.2-.3.2-.5-.1-.4-.2-.5-.3-.2-.6-.2z"/><path id="D" d="M94.5 18.9c-.7 0-1.3.3-1.8.8v-3.4h-1.4v9h1.4v-4.5c.3-.5.7-.8 1.3-.8.4 0 .6.1.8.3s.3.5.3.9v4.1h1.4v-4.1c.1-1.5-.6-2.3-2-2.3z"/><path id="E" d="M32.4 118.3c0-.7-.2-1.2-.7-1.6s-1-.6-1.8-.6c-.5 0-.9.1-1.3.3s-.7.4-.9.7a1.69 1.69 0 0 0-.3 1h1.4c0-.2.1-.5.3-.6s.5-.2.8-.2c.4 0 .7.1.8.3s.3.5.3.8v.4h-.9c-.9 0-1.7.2-2.2.5s-.8.9-.8 1.6c0 .5.2 1 .6 1.3s.9.5 1.6.5a2.19 2.19 0 0 0 1.7-.7c0 .3.1.5.2.6h1.5v-.1c-.2-.3-.2-.8-.2-1.4v-2.8zm-1.4 2.6c-.1.2-.3.4-.6.6s-.5.2-.8.2-.5-.1-.7-.2-.3-.4-.3-.7.1-.6.4-.8.7-.3 1.2-.3h.8v1.2z"/><path id="F" d="M111.8 15.2h42.9c1.1 0 2 .9 2 2v9.2c0 1.1-.9 2-2 2h-42.9c-1.1 0-2-.9-2-2v-9.2c0-1.1.9-2 2-2z"/><path id="G" d="M77.3 39.7H21.1c-1.1 0-2 .9-2 2v50c0 1.1.9 2 2 2h56.1c1.1 0 2-.9 2-2v-50c.1-1.1-.8-2-1.9-2z"/><path id="H" d="M150.9 23.9h.5c.3 0 .5 0 .7-.1s.4-.2.6-.4.3-.4.4-.6.1-.5.1-.8v-.2c0-.3 0-.5-.1-.8s-.2-.4-.4-.6-.3-.3-.6-.4c-.2-.1-.5-.1-.7-.1h-.5-.4-.3v4h.3.4zm0-3.4h.5a.9.9 0 0 1 .5.1c.1.1.3.1.3.3a.76.76 0 0 1 .2.4c0 .2.1.4.1.6v.1c0 .3 0 .5-.1.7s-.2.4-.4.5-.4.2-.6.2h-.5v-2.9z"/></defs></svg>