<svg xmlns="http://www.w3.org/2000/svg" width='240' height='200' xmlns:xlink="http://www.w3.org/1999/xlink" viewBox="0 0 250 207"><path d="M189.4 29.2H60.6c-2.4 0-4.4 2-4.4 4.4v132.7c0 2.4 2 4.4 4.4 4.4h128.8c2.4 0 4.4-2 4.4-4.4V33.6c0-2.4-2-4.4-4.4-4.4z" fill="#dedee0"/><path d="M189.4 18.1H60.6c-2.4 0-4.4 2-4.4 4.4v91.9h137.6V22.5c0-2.4-2-4.4-4.4-4.4zm-31.3 111.6c1.1 0 2.1-.9 2.1-2.1 0-1.1-.9-2.1-2.1-2.1H91.9c-1.1 0-2.1.9-2.1 2.1 0 1.1.9 2.1 2.1 2.1h66.2zm19.7 11.5H72.2c-.6 0-1 .5-1 1h0c0 .6.5 1 1 1h105.5c.6 0 1-.5 1-1h0c.1-.6-.4-1-.9-1zm0 8.1H72.2c-.6 0-1 .5-1 1a1.08 1.08 0 0 0 1 1h105.5c.6 0 1-.5 1-1s-.4-1-.9-1zm-26.9 8.1H99.1c-.6 0-1 .5-1 1 0 .6.5 1 1 1h51.7c.6 0 1-.5 1-1 .1-.6-.4-1-.9-1z" fill="#8796a1"/><path d="M105.4 48.3c-3.1 0-5.7 2.5-5.7 5.7 0 3.1 2.5 5.7 5.7 5.7 3.1 0 5.7-2.5 5.7-5.7s-2.6-5.7-5.7-5.7zm55.9-11.1H88.7c-2 0-3.7 1.6-3.7 3.7v48.8c0 1 .4 1.9 1 2.5v.1h.1c.7.6 1.5 1 2.5 1h72.7c1 0 1.9-.4 2.5-1h.1v-.1c.6-.7 1-1.5 1-2.5V40.9c.1-2-1.5-3.7-3.6-3.7zm1.7 48.9l-22.3-31.5c-1.8-2.6-5.7-2.6-7.5 0l-15.7 22.2 11.8 11.8c.4.4.4 1 0 1.4a1.08 1.08 0 0 1-.7.3c-.3 0-.5-.1-.7-.3l-18.8-18.8c-1.8-1.8-4.7-1.8-6.5 0L87 86.6V40.9a1.58 1.58 0 0 1 1.6-1.6h72.7a1.58 1.58 0 0 1 1.6 1.6v45.2z" fill="#fff"/><g fill="#231f20"><path d="M103.1 187.1l-1.6-6.4h-1.3l-1.6 6.4-1.3-6.4h-1.5l2 8.5h1.4l1.6-6.2 1.7 6.2h1.4l2-8.5h-1.5z"/><use xlink:href="#B"/><path d="M115 188c-.1-.1-.1-.3-.1-.5V184h1.1v-1.1h-1.1v-1.5h-1.4v1.5h-1v1.1h1v3.6c0 1.2.5 1.8 1.6 1.8.3 0 .6 0 .9-.1v-1.1c-.2 0-.3.1-.5.1-.2-.1-.4-.2-.5-.3zm4.7-5.2c-.5 0-1 .1-1.5.4s-.8.7-1 1.2-.4 1.1-.4 1.7v.2c0 .9.3 1.7.8 2.3.6.6 1.3.9 2.2.9.5 0 1-.1 1.4-.3s.8-.5 1-.9l-.8-.7c-.4.5-.9.8-1.6.8-.5 0-.9-.2-1.2-.5s-.5-.7-.5-1.2h4.1v-.6c0-1-.2-1.8-.7-2.3s-.9-1-1.8-1zm1.3 2.7h-2.7c.1-.5.2-.9.5-1.1s.6-.4.9-.4c.4 0 .7.1.9.4s.3.6.4 1.1h0zm3.9-1.9v-.7h-1.4v6.3h1.4v-4.3c.2-.5.7-.8 1.3-.8h.6v-1.3c-.1-.1-.3-.1-.5-.1-.6.1-1 .3-1.4.9zm9.7-.8c-.8 0-1.5.3-1.9 1-.3-.6-.9-1-1.7-1s-1.4.3-1.8.8v-.7h-1.3v6.3h1.4v-4.6c.2-.5.6-.7 1.2-.7.7 0 1.1.4 1.1 1.1v4.2h1.4v-4.3c.1-.3.2-.5.4-.7s.5-.3.8-.3c.4 0 .7.1.9.3s.3.5.3.9v4.1h1.4V185c0-.8-.2-1.3-.5-1.7s-1-.5-1.7-.5z"/><use xlink:href="#B" x="31.6"/><path d="M146.1 183.6v-.7h-1.4v6.3h1.4v-4.3c.2-.5.7-.8 1.3-.8h.6v-1.3c-.1-.1-.3-.1-.5-.1-.6.1-1.1.3-1.4.9zm5.8 1.9l2.3-2.6h-1.7l-1.7 2-.5.5v-5.2h-1.4v9h1.4v-2.1l.7-.6 1.8 2.7h1.7z"/></g><g opacity=".5" fill="#fff"><path d="M140.5 105.5c-.4.3-.9.4-1.3.4h-1.3c-.2 0-.4.1-.6.2-.1.1-.2.3-.2.5s.1.4.2.5.3.2.6.2h1.3c.9 0 1.8-.3 2.5-.9s1.2-1.3 1.4-2.2h-1.6c-.3.6-.6 1-1 1.3zm-1.3-5.7h-4.4c-.2 0-.4.1-.6.2-.1.1-.2.3-.2.5s.1.4.2.5.3.2.5.2h4.4c.5 0 1 .1 1.3.4.4.3.7.7.9 1.1h1.6c-.2-.9-.7-1.7-1.4-2.2-.6-.4-1.4-.7-2.3-.7zm.5 4.4c.1-.1.2-.3.2-.5 0-.1 0-.2-.1-.3 0-.1-.1-.2-.2-.3s-.2-.1-.3-.2c-.1 0-.2-.1-.3-.1h-2.9a2.34 2.34 0 0 0-1.7.7c-.4.4-.7 1-.7 1.6v3.8c0 .2.1.4.2.5s.3.2.6.2c.2 0 .4-.1.6-.2.1-.1.2-.3.2-.5v-3.8c0-.2.1-.4.2-.5s.3-.2.5-.2h2.9c.5 0 .7-.1.8-.2zm8.7-.5l-.6-.2c-.1 0-.2-.1-.3-.1s-.2-.1-.2-.1c-.1 0-.1-.1-.2-.1 0-.1-.1-.1-.1-.2v-.2c0-.1.1-.1.1-.1.1-.1.3-.1.4-.1a.9.9 0 0 1 .5.1c.2.1.3.2.5.3l.5-.7c-.2-.2-.4-.4-.7-.5s-.5-.2-.8-.2c-.2 0-.5 0-.7.1s-.4.2-.5.3-.3.3-.3.4c-.1.2-.1.4-.1.5 0 .2 0 .3.1.5a.76.76 0 0 0 .2.4l.3.3c.1.1.2.1.3.2l.6.3.3.1c.1 0 .1.1.2.1s.1.1.1.1v.2.2c0 .1-.1.1-.1.1-.1.1-.3.1-.5.1s-.4 0-.6-.1l-.6-.3-.6.7c.2.2.5.4.8.5s.6.2.9.2.5 0 .7-.1l.6-.3c.1-.1.3-.3.3-.5.1-.2.1-.4.1-.6 0-.3-.1-.6-.2-.8.1-.2-.1-.4-.4-.5zm3.6-1c-.2 0-.4 0-.6.2-.2.1-.3.2-.5.3v-.6-1.2h-1.1v5h1.1V104l.3-.3c.1-.1.2-.1.3-.1.2 0 .3 0 .3.1.1.1.1.3.1.5v2.1h1.1v-2.2c0-.4-.1-.8-.3-1 0-.3-.3-.4-.7-.4zm3.3 0c-.3 0-.5 0-.8.1s-.5.2-.7.3l.4.7c.2-.1.3-.2.5-.2.1-.1.3-.1.5-.1s.3 0 .4.1.1.2.1.4c-.7.1-1.2.2-1.5.4-.1.1-.3.2-.4.4s-.1.3-.1.5c0 .1 0 .3.1.4 0 .1.1.2.2.3s.2.2.3.2c.1.1.3.1.4.1.2 0 .4 0 .6-.1s.3-.2.5-.3h0l.1.4h.9v-2c0-.5-.1-.9-.4-1.2s-.6-.4-1.1-.4zm.4 2.6c-.1.1-.2.2-.3.2-.1.1-.2.1-.3.1s-.2 0-.3-.1l-.1-.1v-.1a.76.76 0 0 1 .2-.4c.1-.1.4-.2.8-.2v.6zm4.7-2.1c-.1-.2-.3-.3-.4-.4-.2-.1-.4-.1-.6-.1s-.4 0-.5.1c-.2.1-.3.2-.5.3h0l-.1-.3h-.9v4.8h1.1v-1-.6c.1.1.3.2.4.3s.3.1.4.1c.2 0 .4 0 .6-.1s.3-.2.5-.4c.1-.2.3-.4.3-.6.1-.3.1-.5.1-.8 0-.2 0-.5-.1-.7 0-.2-.1-.4-.3-.6zm-.9 2.1l-.2.2c-.1 0-.2.1-.3.1h-.3c-.1 0-.2-.1-.3-.2V104c.2-.2.4-.3.6-.3.4 0 .6.3.6 1a.47.47 0 0 1-.1.6zm4.5-2.1c-.1-.2-.3-.3-.5-.4s-.4-.1-.7-.1c-.2 0-.4 0-.6.1s-.4.2-.5.4c-.2.2-.3.4-.4.6s-.1.5-.1.8 0 .5.1.8c.1.2.2.4.4.6s.4.3.6.4.5.1.7.1.4 0 .7-.1l.6-.3-.4-.6c-.2.1-.5.2-.8.2-.2 0-.4-.1-.6-.2s-.3-.3-.3-.6h2.1v-.2-.3c0-.2 0-.5-.1-.7 0-.2-.1-.3-.2-.5zm-1.8 1c0-.2.1-.4.2-.5a.76.76 0 0 1 .4-.2c.2 0 .4.1.5.2s.1.3.1.5h-1.2z"/><path d="M167 102.5v.5c-.1-.1-.2-.2-.4-.3s-.3-.1-.5-.1-.4 0-.5.1c-.2.1-.3.2-.5.4-.1.2-.3.4-.3.6-.1.2-.1.5-.1.8s0 .5.1.8l.3.6c.1.2.3.3.5.4s.4.1.6.1.4 0 .5-.1a1.38 1.38 0 0 0 .4-.3h0l.1.3h.9v-5H167v1.2zm0 2.7c-.1.1-.2.2-.3.2s-.2.1-.3.1-.2 0-.3-.1c-.1 0-.2-.1-.2-.2-.1-.2-.2-.4-.2-.8h0c0-.3.1-.6.2-.7.1-.2.3-.2.4-.2h.3c.1 0 .2.1.3.2v1.5zm4.9-3.2c-.2-.1-.4-.2-.6-.2-.2-.1-.5-.1-.7-.1h-1.7v4.6h1.1v-1.6h.7c.2 0 .5 0 .7-.1l.6-.3c.2-.1.3-.3.4-.5s.1-.5.1-.7 0-.5-.1-.7c-.2-.1-.3-.3-.5-.4zm-1.3 1.9h-.6v-1.4h.6c.3 0 .5 0 .6.1s.2.3.2.5c0 .6-.2.8-.8.8zm3.7 1.7h0-.1-.1s-.1-.1-.1-.2v-3.9h-1v3.9a.9.9 0 0 0 .1.5.76.76 0 0 0 .2.4c.1.1.2.2.3.2.1.1.3.1.5.1h.3c.1 0 .1 0 .2-.1l-.3-.9h0zm2.7-.5l-.3.3c-.1.1-.2.1-.3.1-.2 0-.3 0-.3-.1-.1-.1-.1-.3-.1-.5v-2.1h-1.1v2.2c0 .4.1.8.3 1 .2.3.5.4.8.4.2 0 .4 0 .6-.2.2-.1.4-.3.5-.4h0l.1.5h.9v-3.5H177v2.3zm3.7.6h-.6c-.2 0-.3 0-.4-.1 0 0-.1 0-.1-.1v-.1-.1l.1-.1c.1 0 .3.1.4.1.2 0 .4 0 .5-.1.2 0 .3-.1.4-.2a1.38 1.38 0 0 0 .3-.4c.1-.2.1-.3.1-.5v-.3c0-.1 0-.1-.1-.2h.6v-.8h-1.3c-.2-.1-.4-.1-.6-.1s-.4 0-.6.1c-.2 0-.3.1-.5.2a1.38 1.38 0 0 0-.3.4c-.1.2-.1.4-.1.6s0 .4.1.6c.1.1.2.3.3.4h0l-.3.3c-.1.1-.1.2-.1.4 0 .1 0 .3.1.4s.1.2.2.2h0c-.3.2-.5.4-.5.7 0 .1 0 .3.1.4l.3.3c.1.1.3.1.5.2.2 0 .4.1.6.1.3 0 .6 0 .8-.1s.4-.1.6-.3a.78.78 0 0 0 .4-.4c.1-.2.1-.3.1-.5 0-.3-.1-.5-.3-.7s-.3-.3-.7-.3zm-.9-2.1s.1-.1.2-.1h.2.2c.1 0 .1.1.2.1.1.1.1.2.1.4s0 .3-.1.4c0 0-.1.1-.2.1h-.2-.2c-.1 0-.1-.1-.2-.1-.1-.1-.1-.2-.1-.4-.1-.2 0-.3.1-.4zm1 3.4c-.2.1-.4.1-.6.1s-.4 0-.6-.1c-.1-.1-.2-.2-.2-.3h0c0-.1.1-.2.2-.3h.2.3.4c.1 0 .3 0 .4.1 0 0 .1 0 .1.1v.1c0 .2-.1.3-.2.3zm2.6-5.7c-.1-.1-.3-.1-.4-.1-.2 0-.3.1-.4.1s-.1.1-.1.2v.2.2c0 .1.1.1.1.2a.76.76 0 0 0 .4.2c.2 0 .3 0 .4-.2.1 0 .1-.1.1-.2v-.2-.2c0-.1-.1-.1-.1-.2zm-1 1.5h1.1v3.5h-1.1zm3.9-.1c-.2 0-.4.1-.6.2s-.3.2-.5.4h0l-.1-.4h-.9v3.5h1.1V104l.3-.3c.1-.1.2-.1.3-.1.2 0 .3 0 .3.1.1.1.1.3.1.5v2.1h1.1v-2.2c0-.4-.1-.8-.3-1-.1-.3-.4-.4-.8-.4z"/></g><g fill="#fff"><path d="M222.3 58.1h0s-.1 0 0 0c-.1 0-.1-.1-.1-.1v-1.7h-.5V58v.2c0 .1 0 .1.1.2l.1.1h.2.1.1v-.4zm1.2-.2c0 .1-.1.1-.1.1h-.1c-.1 0-.1 0-.1-.1v-.2-.9h-.5v1c0 .2 0 .4.1.5s.2.2.4.2c.1 0 .2 0 .3-.1.1 0 .2-.1.2-.2h0v.2h.4v-1.6h-.5v1.1zm1.6.3h-.3-.2v-.1-.1-.1h.2.2c.1 0 .1-.1.2-.1s.1-.1.1-.2v-.2-.1-.1h.3v-.3h-.6-.2-.2c-.1 0-.1.1-.2.1s-.1.1-.1.2-.1.2-.1.2c0 .1 0 .2.1.2 0 .1.1.1.1.2h0c-.1 0-.1.1-.1.1s0 .1-.1.2v.2l.1.1h0c-.2.1-.2.2-.2.3s0 .1.1.2c0 .1.1.1.1.1.1 0 .1.1.2.1h.3.4c.1 0 .2-.1.3-.1s.1-.1.2-.2c0-.1.1-.1.1-.2s-.1-.2-.2-.3-.3-.1-.5-.1zm-.4-.9c.1-.1.1-.1 0 0 .1-.1.1-.1.2-.1h.1.1s.1.1.1.2 0 .2-.1.2h-.1-.1-.1-.1s-.1-.1-.1-.2c.1 0 .1-.1.1-.1zm.5 1.5c-.1 0-.2.1-.3.1h-.3c-.1 0-.1-.1-.1-.1h0c0-.1 0-.1.1-.2h.1.1.2.2v.1c.1 0 .1.1 0 .1z"/><path d="M225.9 56.9h.5v1.6h-.5zm.4-.6c-.1 0-.1-.1-.2-.1s-.1 0-.2.1l-.1.1v.1.1s0 .1.1.1.1.1.2.1.1 0 .2-.1l.1-.1v-.1c0-.1 0-.1-.1-.2h0zm1.7.7c-.1-.1-.2-.2-.4-.2-.1 0-.2 0-.3.1-.1 0-.2.1-.2.2h0v-.2h-.4v1.6h.5v-1.1l.1-.1h.2c.1 0 .1 0 .1.1v.2.9h.5v-1c0-.2 0-.3-.1-.5z"/></g><path d="M124.7 176.8l28.9-63.6 1.8.8-.5-4.8-3.9 2.8 1.8.8-28.8 63.7c-.8-.2-1.7.2-2 1-.4.9 0 2 .9 2.4s2 0 2.4-.9c.3-.8 0-1.7-.6-2.2z" fill="#f21197"/><defs ><path id="B" d="M111.6 184.9c0-.7-.2-1.2-.7-1.6s-1-.6-1.8-.6c-.5 0-.9.1-1.3.3s-.7.4-.9.7a1.69 1.69 0 0 0-.3 1h1.4c0-.2.1-.5.3-.6s.5-.2.8-.2c.4 0 .7.1.8.3s.3.5.3.8v.4h-.9c-.9 0-1.7.2-2.2.5s-.8.9-.8 1.6c0 .5.2 1 .6 1.3s.9.5 1.6.5a2.19 2.19 0 0 0 1.7-.7c0 .3.1.5.2.6h1.5v-.1c-.2-.3-.2-.8-.2-1.4v-2.8zm-1.4 2.5c-.1.2-.3.4-.6.6s-.5.2-.8.2-.5-.1-.7-.2-.3-.4-.3-.7.1-.6.4-.8.7-.3 1.2-.3h.8v1.2z"/></defs></svg>