<svg xmlns="http://www.w3.org/2000/svg" width="81" height="32" fill="none" xmlns:v="https://vecta.io/nano"><circle cx="13" cy="16" r="5" fill="#8796a1"/><path d="M14.168 13.313V19h-1.316v-4.203l-1.297.379v-1l2.492-.863h.121z" fill="#fff"/><circle cx="27" cy="16" r="5" fill="#8796a1"/><path d="M29.222 17.984V19h-3.969v-.859l1.828-1.922.391-.496a1.99 1.99 0 0 0 .215-.402.9.9 0 0 0 .07-.324c0-.164-.025-.301-.074-.41s-.117-.197-.211-.254-.204-.086-.34-.086-.254.039-.355.117-.181.185-.238.32a1.21 1.21 0 0 0-.082.457h-1.32a1.86 1.86 0 0 1 .254-.957 1.9 1.9 0 0 1 .715-.691 2.09 2.09 0 0 1 1.059-.262c.419 0 .771.065 1.055.195a1.38 1.38 0 0 1 .641.566c.146.245.219.54.219.887a1.73 1.73 0 0 1-.094.57 2.45 2.45 0 0 1-.269.543c-.117.177-.26.359-.43.547l-.57.598-.734.848h2.242z" fill="#fff"/><circle cx="41" cy="16" r="5" fill="#8796a1"/><path d="M40.453 15.606h.641a.83.83 0 0 0 .402-.086c.107-.06.186-.143.238-.25a.89.89 0 0 0 .078-.387.68.68 0 0 0-.074-.316.53.53 0 0 0-.219-.23c-.099-.06-.225-.09-.379-.09a.74.74 0 0 0-.305.066c-.099.042-.181.102-.246.18s-.094.173-.094.285h-1.32c0-.323.089-.599.266-.828s.415-.409.707-.531.611-.187.949-.187c.404 0 .758.063 1.063.188s.542.305.711.547.258.537.258.891a1.16 1.16 0 0 1-.137.551c-.091.172-.219.323-.383.453s-.357.233-.578.309a2.26 2.26 0 0 1-.719.109h-.859v-.672zm0 .98v-.656h.859a2.9 2.9 0 0 1 .777.098 1.78 1.78 0 0 1 .605.281 1.27 1.27 0 0 1 .391.465 1.39 1.39 0 0 1 .137.629c0 .266-.053.503-.16.711s-.257.384-.449.527a2.12 2.12 0 0 1-.676.328c-.258.073-.538.109-.84.109-.237 0-.474-.031-.711-.094s-.453-.164-.648-.297-.353-.307-.473-.516-.176-.462-.176-.754h1.32c0 .12.033.229.098.328a.73.73 0 0 0 .27.231c.112.057.233.086.363.086a.86.86 0 0 0 .41-.09c.115-.062.202-.146.262-.25s.09-.22.09-.348c0-.193-.032-.346-.098-.461s-.155-.198-.277-.25-.264-.078-.434-.078h-.641z" fill="#fff"/><circle cx="55" cy="16" r="5" fill="#8796a1"/><path d="M57.304 16.777v1.016H53.21l-.078-.805 2.285-3.676h1.039l-1.129 1.848-.937 1.617h2.914zm-.574-3.465V19h-1.316v-5.687h1.316z" fill="#fff"/><circle cx="69" cy="16" r="5" fill="#8796a1"/><path d="M68.379 16.465l-1.047-.246.344-2.906H71v1.023h-2.25l-.129 1.129c.063-.036.168-.079.316-.129s.318-.078.5-.078a2.01 2.01 0 0 1 .746.129c.219.083.404.207.555.371s.264.361.34.598.117.508.117.813c0 .245-.04.482-.121.711a1.77 1.77 0 0 1-.363.613c-.161.18-.366.323-.613.43s-.54.156-.879.156c-.253 0-.499-.039-.738-.117s-.456-.19-.648-.336-.341-.327-.453-.535a1.48 1.48 0 0 1-.16-.707h1.324c.008.138.04.258.098.359s.134.181.231.238a.69.69 0 0 0 .34.082c.13 0 .238-.026.324-.078s.154-.124.203-.215.085-.195.106-.312.031-.246.031-.379c0-.141-.016-.267-.047-.379s-.075-.207-.141-.285a.61.61 0 0 0-.254-.184c-.102-.042-.224-.062-.367-.062-.19 0-.34.033-.449.098s-.189.131-.238.199z" fill="#fff"/><rect x="1" y=".5" width="79" height="31" rx="1.5" stroke="#ccc"/></svg>