<svg xmlns="http://www.w3.org/2000/svg" width="80" height="32" fill="none" xmlns:v="https://vecta.io/nano"><circle cx="40" cy="16" r="10" fill="#d9e3e8"/><path d="M36.663 12.979v5.687h-1.316v-4.203l-1.297.379v-1l2.492-.863h.121zm4.145 0l-1.945 6.176h-.937l1.945-6.176h.938zm3.359-.082h.211v1.035h-.07c-.253 0-.49.035-.711.106a1.65 1.65 0 0 0-.578.32c-.164.141-.293.319-.387.535a1.95 1.95 0 0 0-.137.762v.996c0 .182.016.341.047.477s.078.247.141.336a.6.6 0 0 0 .23.199c.094.044.202.066.324.066.102 0 .195-.023.281-.07a.67.67 0 0 0 .223-.199.93.93 0 0 0 .148-.301c.034-.114.051-.239.051-.375 0-.146-.018-.277-.055-.395s-.089-.216-.156-.297-.145-.146-.238-.188a.68.68 0 0 0-.301-.066.77.77 0 0 0-.426.113.73.73 0 0 0-.262.281.77.77 0 0 0-.086.348l-.316-.32c-.005-.156.025-.318.09-.484a1.5 1.5 0 0 1 .293-.465 1.47 1.47 0 0 1 .488-.348c.195-.088.422-.133.68-.133s.49.05.688.149a1.41 1.41 0 0 1 .504.414 1.86 1.86 0 0 1 .313.621c.07.237.106.494.106.77s-.05.538-.148.777a1.86 1.86 0 0 1-.41.621c-.177.177-.387.315-.629.414s-.509.149-.801.149a2.23 2.23 0 0 1-.832-.152 1.96 1.96 0 0 1-.664-.449c-.187-.198-.335-.439-.441-.723s-.156-.605-.156-.965v-.48c0-.487.079-.921.238-1.301s.38-.702.656-.965a2.86 2.86 0 0 1 .957-.605 3.14 3.14 0 0 1 1.137-.207z" fill="#8796a1"/><rect x=".5" y=".5" width="79" height="31" rx="1.5" stroke="#ccc"/></svg>