<svg xmlns="http://www.w3.org/2000/svg" height='80' width='100' viewBox="0 0 100 80"><path d="M80.7 59.6H19.3a1.79 1.79 0 0 1-1.8-1.8V8.6A1.54 1.54 0 0 1 19 7.1h61.7a1.79 1.79 0 0 1 1.8 1.8v49c0 .9-.8 1.7-1.8 1.7z" fill="#8796a1"/><path d="M68.8 16.6H31.2a2.69 2.69 0 0 0-2.7 2.7v28a2.69 2.69 0 0 0 2.7 2.7h37.5a2.69 2.69 0 0 0 2.7-2.7v-28c.1-1.4-1.1-2.7-2.6-2.7zm0 22.6l-5.4-4.9c-.8-.7-2.1-.7-2.8.1l-5.4 5.5L44.4 27c-.7-.9-2-1-2.8-.3l-.3.3-10.1 11.6V19.4h37.5v19.8zm-7.9-8.9h0c2.2 0 3.8-1.7 3.8-3.8a3.8 3.8 0 0 0-7.6 0c.1 2.1 1.8 3.8 3.8 3.8z" fill="#d9e3e8"/><path d="M72.5 73h-45c-.8 0-1.5-.6-1.5-1.4v-24c0-.8.7-1.5 1.6-1.5h44.9c.8 0 1.5.6 1.5 1.4v24a1.47 1.47 0 0 1-1.5 1.5z" opacity=".9" fill="#29343a"/><path d="M63.6 54H36.3c-.8 0-1.4-.6-1.4-1.4h0c0-.8.6-1.4 1.4-1.4h27.3c.8 0 1.4.6 1.4 1.4h0c.1.7-.6 1.4-1.4 1.4z" fill="#fff"/><path d="M68.2 59.9H31.8c-.4 0-.8-.4-.8-.8h0c0-.4.4-.8.8-.8h36.4c.4 0 .8.4.8.8h0c0 .4-.4.8-.8.8zm0 4.1H31.8c-.4 0-.8-.4-.8-.8h0c0-.4.4-.8.8-.8h36.4c.4 0 .8.4.8.8h0c0 .4-.4.8-.8.8zm-3 4H34.8c-.4 0-.8-.4-.8-.8h0c0-.4.4-.8.8-.8h30.4c.4 0 .8.4.8.8h0c0 .5-.4.8-.8.8z" fill="#f3fdff"/></svg>