<svg xmlns="http://www.w3.org/2000/svg" height='80' width='100' viewBox="0 0 100 80"><path d="M75.1 17.6H24.9c-2 0-3.6 1.6-3.6 3.7v37.5c0 2 1.6 3.6 3.6 3.6h50.3c2 0 3.6-1.6 3.6-3.6V21.3c0-2-1.6-3.7-3.7-3.7zm0 30.2L68 41.2c-1.1-1-2.8-1-3.8.1l-7.3 7.4-14.4-17.1c-.9-1.1-2.6-1.3-3.8-.4-.2.1-.3.3-.4.4L24.9 47.1V21.3h50.3v26.5zM64.7 35.9h.1c2.8 0 5-2.3 4.9-5.1 0-2.8-2.3-5.1-5.1-5.1s-5.1 2.3-5.1 5.1c.1 2.9 2.4 5.1 5.2 5.1z" fill="#8796a1"/><path d="M100.1 80H-.1V51.1l100.2 10z" opacity=".9" fill="#29343a"/><path d="M92.5 74.2h-85c-.4 0-.8-.4-.8-.8h0c0-.4.4-.8.8-.8h84.9c.4 0 .8.4.8.8h0c0 .5-.3.8-.7.8z" fill="#f3fdff"/><path d="M45.3 68.3H8.2c-.8 0-1.4-.6-1.4-1.4h0c0-.8.6-1.4 1.4-1.4h37.1c.8 0 1.4.6 1.4 1.4h0c.1.8-.6 1.4-1.4 1.4z" fill="#fff"/></svg>