<svg xmlns="http://www.w3.org/2000/svg" height='80' width='100' viewBox="0 0 100 80"><path d="M75.1 17.6H24.9c-2 0-3.6 1.6-3.6 3.7v37.5c0 2 1.6 3.6 3.6 3.6h50.3c2 0 3.6-1.6 3.6-3.6V21.3c0-2-1.6-3.7-3.7-3.7zm0 30.2L68 41.2c-1.1-1-2.8-1-3.8.1l-7.3 7.4-14.4-17.1c-.9-1.1-2.6-1.3-3.8-.4-.2.1-.3.3-.4.4L24.9 47.1V21.3h50.3v26.5zM64.7 35.9h.1c2.8 0 5-2.3 4.9-5.1 0-2.8-2.3-5.1-5.1-5.1s-5.1 2.3-5.1 5.1c.1 2.9 2.4 5.1 5.2 5.1z" fill="#8796a1"/><path d="M-.1 0h100.2v80H-.1z" opacity=".75" fill="#29343a"/><path d="M78 38.3H22c-.4 0-.8-.4-.8-.8h0c0-.4.4-.8.8-.8h56c.4 0 .8.4.8.8h0c0 .4-.3.8-.8.8zm0 4H22c-.4 0-.8-.4-.8-.8h0c0-.4.4-.8.8-.8h56c.4 0 .8.4.8.8h0c0 .5-.3.8-.8.8zm0 4.1H22c-.4 0-.8-.4-.8-.8h0c0-.4.4-.8.8-.8h56c.4 0 .8.4.8.8h0c0 .5-.3.8-.8.8zm-4.8 4.1H26.8c-.4 0-.8-.4-.8-.8h0c0-.4.4-.8.8-.8h46.4c.4 0 .8.4.8.8h0c0 .5-.4.8-.8.8z" fill="#f3fdff"/><path d="M68.4 32.4H31.3c-.8 0-1.4-.6-1.4-1.4h0c0-.8.6-1.4 1.4-1.4h37.1c.8 0 1.4.6 1.4 1.4h0c.1.7-.6 1.4-1.4 1.4z" fill="#fff"/></svg>