<svg xmlns="http://www.w3.org/2000/svg" height='80' width='100' viewBox="0 0 100 80"><path d="M19.9 45.7H37c.5 0 .8-.4.8-.8V29.3c0-.5-.4-.8-.8-.8H19.9c-.5 0-.8.4-.8.8v15.5c0 .5.4.9.8.9zm21.5 0h17.1c.5 0 .8-.4.8-.8V29.3c0-.5-.4-.8-.8-.8H41.4c-.5 0-.8.4-.8.8v15.5c0 .5.4.9.8.9zm21.5 0H80c.5 0 .8-.4.8-.8V29.3c0-.5-.4-.8-.8-.8H62.9c-.5 0-.8.4-.8.8v15.5c0 .5.4.9.8.9zm26.5-9.1L86 33.2c-.1-.1-.4-.1-.5 0l-.6.6c-.1.1-.1.4 0 .5l2.7 2.7c.1.1.1.4 0 .5l-2.7 2.7c-.1.1-.1.4 0 .5l.6.6c.1.1.4.1.5 0l3.4-3.4.6-.6-.6-.7zm-74.2-2.5c.2-.2.2-.4 0-.6l-.6-.6a.37.37 0 0 0-.6 0l-3.4 3.4-.6.6.6.6 3.4 3.4a.37.37 0 0 0 .6 0l.5-.5c.2-.2.2-.4 0-.6l-2.5-2.5c-.2-.2-.2-.4 0-.6l2.6-2.6zM50 49.4a1.6 1.6 0 1 0 0 3.2 1.6 1.6 0 1 0 0-3.2z" fill="#8796a1"/><path d="M46 49.4a1.6 1.6 0 1 0 0 3.2 1.6 1.6 0 1 0 0-3.2zm8 0a1.6 1.6 0 1 0 0 3.2 1.6 1.6 0 1 0 0-3.2z" fill="#bac2c6"/></svg>