<svg xmlns="http://www.w3.org/2000/svg" height='80' width='100' viewBox="0 0 100 80" fill="#8796a1"><path d="M40.5 18.4h18.9a.94.94 0 0 1 1 1v8a.94.94 0 0 1-1 1H40.5a.94.94 0 0 1-1-1v-8a.94.94 0 0 1 1-1zm0 21.8h18.9a.94.94 0 0 1 1 1v12.9a.94.94 0 0 1-1 1H40.5a.94.94 0 0 1-1-1V41.3c0-.6.4-1.1 1-1.1zm-23.8-22h18.9a.94.94 0 0 1 1 1v15.6a.94.94 0 0 1-1 1H16.7a.94.94 0 0 1-1-1V19.3c0-.6.4-1.1 1-1.1zm0 22h18.9a.94.94 0 0 1 1 1v19.5a.94.94 0 0 1-1 1H16.7a.94.94 0 0 1-1-1V41.3c0-.6.4-1.1 1-1.1zm47.7-21.8h18.9a.94.94 0 0 1 1 1v13.1a.94.94 0 0 1-1 1H64.4a.94.94 0 0 1-1-1V19.4a.94.94 0 0 1 1-1zm0 21.8h18.9a.94.94 0 0 1 1 1v17a.94.94 0 0 1-1 1H64.4a.94.94 0 0 1-1-1v-17c0-.5.4-1 1-1z"/></svg>