<svg xmlns="http://www.w3.org/2000/svg" height='80' width='100' viewBox="0 0 100 80" fill="#8796a1"><path d="M41.2 19.6h23.5c.9 0 1.7.8 1.7 1.7v15.6c0 .9-.8 1.7-1.7 1.7H41.2c-.9 0-1.7-.8-1.7-1.7V21.3c0-.9.8-1.7 1.7-1.7zm29.9 0h11.5c.9 0 1.7.8 1.7 1.7v15.6c0 .9-.8 1.7-1.7 1.7H71.1c-.9 0-1.7-.8-1.7-1.7V21.3c0-.9.8-1.7 1.7-1.7zm-53.7-.1h17.5c.9 0 1.7.8 1.7 1.7V37c0 .9-.8 1.7-1.7 1.7H17.4c-.9 0-1.7-.8-1.7-1.7V21.2c0-.9.8-1.7 1.7-1.7zm0 22h35c.9 0 1.7.8 1.7 1.7v15.4c0 .9-.8 1.7-1.7 1.7h-35c-.9 0-1.7-.8-1.7-1.7V43.2c0-.9.8-1.7 1.7-1.7zm41.3 0h23.9c.9 0 1.7.8 1.7 1.7v15.6c0 .9-.8 1.7-1.7 1.7H58.7c-.9 0-1.7-.8-1.7-1.7V43.2c0-.9.8-1.7 1.7-1.7z"/></svg>