<svg xmlns="http://www.w3.org/2000/svg" height='80' width='100' viewBox="0 0 100 80" fill="#8796a1"><path d="M17 19.5h18.3c.7 0 1.3.6 1.3 1.3v11.9c0 .7-.6 1.3-1.3 1.3H17c-.7 0-1.3-.6-1.3-1.3V20.8c-.1-.8.5-1.3 1.3-1.3zm23.9 0h18.3c.7 0 1.3.6 1.3 1.3v18.9c0 .7-.6 1.3-1.3 1.3H40.9c-.7 0-1.3-.6-1.3-1.3V20.8c-.1-.8.5-1.3 1.3-1.3zm23.9 0H83c.7 0 1.3.6 1.3 1.3v5.9c0 .7-.6 1.3-1.3 1.3H64.8c-.7 0-1.3-.6-1.3-1.3v-5.9c0-.8.5-1.3 1.3-1.3zM17 37h18.3c.7 0 1.3.6 1.3 1.3v21c0 .7-.6 1.3-1.3 1.3H17c-.7 0-1.3-.6-1.3-1.3v-21c-.1-.8.5-1.3 1.3-1.3zm23.9 7h18.3c.7 0 1.3.6 1.3 1.3v14c0 .7-.6 1.3-1.3 1.3H40.9c-.7 0-1.3-.6-1.3-1.3v-14c-.1-.8.5-1.3 1.3-1.3zm23.9-13H83c.7 0 1.3.6 1.3 1.3v27c0 .7-.6 1.3-1.3 1.3H64.8c-.7 0-1.3-.6-1.3-1.3v-27c0-.8.5-1.3 1.3-1.3z"/></svg>