<svg width="100" height="80" viewBox="0 0 100 80" fill="none" xmlns="http://www.w3.org/2000/svg">
<rect x="16" y="17" width="68" height="34" rx="1" fill="#8796A1"/>
<path d="M17.3001 52.7002H27.2001C27.9001 52.7002 28.4001 53.2002 28.4001 53.9002V61.7002C28.4001 62.4002 27.9001 62.9002 27.2001 62.9002H17.3001C16.6001 62.9002 16.1001 62.4002 16.1001 61.7002V53.9002C16.1001 53.2002 16.6001 52.7002 17.3001 52.7002V52.7002Z" fill="#8796A1"/>
<path d="M31.2 52.7002H41.1C41.8 52.7002 42.3 53.2002 42.3 53.9002V61.7002C42.3 62.4002 41.8 62.9002 41.1 62.9002H31.2C30.5 62.9002 30 62.4002 30 61.7002V53.9002C30 53.2002 30.5 52.7002 31.2 52.7002V52.7002Z" fill="#8796A1"/>
<path d="M45.0999 52.7002H54.9999C55.6999 52.7002 56.1999 53.2002 56.1999 53.9002V61.7002C56.1999 62.4002 55.6999 62.9002 54.9999 62.9002H45.0999C44.3999 62.9002 43.8999 62.4002 43.8999 61.7002V53.9002C43.8999 53.2002 44.3999 52.7002 45.0999 52.7002ZM58.8999 52.7002H68.7999C69.4999 52.7002 69.9999 53.2002 69.9999 53.9002V61.7002C69.9999 62.4002 69.4999 62.9002 68.7999 62.9002H58.8999C58.1999 62.9002 57.6999 62.4002 57.6999 61.7002V53.9002C57.5999 53.2002 58.1999 52.7002 58.8999 52.7002ZM72.7999 52.7002H82.6999C83.3999 52.7002 83.8999 53.2002 83.8999 53.9002V61.7002C83.8999 62.4002 83.3999 62.9002 82.6999 62.9002H72.7999C72.0999 62.9002 71.5999 62.4002 71.5999 61.7002V53.9002C71.5999 53.2002 72.1999 52.7002 72.7999 52.7002Z" fill="#8796A1"/>
<path d="M79.729 33.2906L76.7101 30.2717C76.3478 29.9094 75.7441 29.9094 75.3818 30.2717C75.0195 30.634 75.0195 31.2377 75.3818 31.6L77.7969 34.0151L75.3818 36.4302C75.0195 36.7925 75.0195 37.3962 75.3818 37.7585C75.5026 37.8792 75.7441 38 75.9856 38C76.2271 38 76.4686 37.8792 76.7101 37.6377L79.729 34.6189C80.0912 34.2566 80.0912 33.6528 79.729 33.2906Z" fill="white"/>
<path d="M24.6897 30.376C24.3218 30.0081 23.7088 30.0081 23.341 30.376L20.2759 33.4411C19.908 33.8089 19.908 34.4219 20.2759 34.7898L23.341 37.8549C23.4636 37.9775 23.7088 38.1001 23.954 38.1001C24.1992 38.1001 24.4444 37.9775 24.6897 37.9775C25.0575 37.6097 25.0575 36.9967 24.6897 36.6288L22.2375 34.1767L24.6897 31.7246C25.0575 31.3568 25.0575 30.7438 24.6897 30.376Z" fill="white"/>
</svg>
