<svg xmlns="http://www.w3.org/2000/svg" height='80' width='100' viewBox="0 0 100 80" fill="#8796a1" ><path d="M16.9 41.4h18.4c.7 0 1.2.6 1.2 1.2v16.5c0 .7-.6 1.2-1.2 1.2H16.9c-.7 0-1.2-.6-1.2-1.2V42.6c0-.6.6-1.2 1.2-1.2zm23.8-21.8h18.4c.7 0 1.2.6 1.2 1.2v16.5c0 .7-.6 1.2-1.2 1.2H40.7c-.7 0-1.2-.6-1.2-1.2V20.8c0-.6.6-1.2 1.2-1.2zm0 21.9h18.4c.7 0 1.2.6 1.2 1.2v16.5c0 .7-.6 1.2-1.2 1.2H40.7c-.7 0-1.2-.6-1.2-1.2V42.7c0-.6.6-1.2 1.2-1.2zm-23.8-22h18.4c.7 0 1.2.6 1.2 1.2v16.5c0 .7-.6 1.2-1.2 1.2H16.9c-.7 0-1.2-.6-1.2-1.2V20.7c0-.6.6-1.2 1.2-1.2zm47.7.1H83c.7 0 1.2.6 1.2 1.2v16.5c0 .7-.6 1.2-1.2 1.2H64.6c-.7 0-1.2-.6-1.2-1.2V20.8c0-.6.6-1.2 1.2-1.2zm0 21.9H83c.7 0 1.2.6 1.2 1.2v16.5c0 .7-.6 1.2-1.2 1.2H64.6c-.7 0-1.2-.6-1.2-1.2V42.7c0-.6.6-1.2 1.2-1.2z"/></svg>