<svg xmlns="http://www.w3.org/2000/svg" height='23' width='36' viewBox="0 0 37 23"><path d="M23.2 8.9c0-.5-.1-1-.3-1.4-.2-.6-.5-.9-.9-1-.5-.1-1.1.2-1.6 1-.4.6-.7 1.2-.8 1.9-.1.4-.1.8-.1 1.1 0 .5.1 1 .3 1.4.2.6.5.9.9 1 .2 0 .5 0 .7-.1s.4-.2.6-.4c.6-.6 1-1.5 1.1-2.4.1-.3.1-.7.1-1.1zm0 0c0-.5-.1-1-.3-1.4-.2-.6-.5-.9-.9-1-.5-.1-1.1.2-1.6 1-.4.6-.7 1.2-.8 1.9-.1.4-.1.8-.1 1.1 0 .5.1 1 .3 1.4.2.6.5.9.9 1 .2 0 .5 0 .7-.1s.4-.2.6-.4c.6-.6 1-1.5 1.1-2.4.1-.3.1-.7.1-1.1zM33.6 0H3.4a3.08 3.08 0 0 0-1.3.3c-.4.2-.8.4-1.1.8-.3.3-.6.7-.7 1.1-.2.5-.3.9-.3 1.4v12c0 .5.1.9.3 1.4.2.4.4.8.7 1.2a4.44 4.44 0 0 0 1.1.8 3.08 3.08 0 0 0 1.3.3h14.3l6.5 3.8-1.5-3.8h10.8c.9 0 1.8-.4 2.4-1.1s1-1.6 1-2.5v-12c0-1-.4-1.9-1-2.5C35.3.4 34.5 0 33.6 0zM15.3 15.7c0 .4 0 .7-.2 1a1.38 1.38 0 0 1-.3.4.76.76 0 0 1-.4.2c-.2 0-.5 0-.7-.1s-.4-.2-.5-.4c-1.6-1.9-2.8-4.2-3.3-6.7l-2.2 4.5c-.9 1.8-1.6 2.7-2.3 2.7-.4 0-.8-.3-1.1-1.1-.8-2.1-1.6-6-2.5-11.9v-.6c0-.2.1-.3.2-.5.3-.1.4-.2.6-.3s.3-.1.5-.1h.5c.2.1.3.1.4.2a1.38 1.38 0 0 1 .3.4c.1.2.1.3.1.5.5 3.3 1 6.1 1.5 8.3l3.3-6.5c.1-.2.2-.5.4-.6.2-.2.4-.3.7-.3.7 0 1.1.4 1.2 1.3.3 1.8.8 3.6 1.4 5.4.4-4 1.1-6.9 2-8.7.1-.2.2-.4.4-.5s.4-.2.6-.2c.3 0 .7.1.9.3a1.38 1.38 0 0 1 .3.4.9.9 0 0 1 .1.5c0 .3 0 .5-.2.8-.8 1.8-1.3 3.7-1.5 5.6-.1 2-.2 4-.2 6zm9.3-2.4c-.3.7-.8 1.3-1.4 1.7s-1.3.6-2.1.7c-.3 0-.5 0-.8-.1-.5-.1-1-.3-1.4-.6s-.8-.7-1-1.2c-.5-1-.8-2-.8-3.1 0-1.6.4-3.1 1.2-4.4.3-.7.8-1.3 1.4-1.7.6-.6 1.3-.8 2.1-.8.3 0 .5 0 .8.1.5.1 1 .3 1.4.6s.8.7 1 1.2c.5.9.8 2 .8 3.1 0 1.6-.4 3.1-1.2 4.5zm9.4 0c-.3.7-.8 1.3-1.4 1.7s-1.3.6-2.1.7c-.6 0-1.3-.2-1.8-.5s-1-.8-1.4-1.4c-.5-1-.8-2-.8-3.1 0-1.6.4-3.1 1.2-4.4.9-1.6 2.1-2.4 3.5-2.4.3 0 .5 0 .8.1.5.1 1 .3 1.4.6s.8.7 1 1.2c.5.9.8 2 .8 3.1 0 1.5-.4 3-1.2 4.4zm-2.5-6.8c-.5-.1-1.1.2-1.6 1-.4.6-.6 1.2-.8 1.9-.1.4-.1.8-.1 1.1 0 .5.1 1 .3 1.4.2.6.5.9.9 1 .2 0 .5 0 .7-.1s.4-.2.6-.4c.6-.6 1-1.5 1.1-2.4.1-.4.1-.8.1-1.2 0-.5-.1-1-.3-1.4-.3-.5-.6-.8-.9-.9zm-8.6 1c-.2-.6-.5-.9-.9-1-.5-.1-1.1.2-1.6 1-.4.6-.7 1.2-.8 1.9-.1.4-.1.8-.1 1.1 0 .5.1 1 .3 1.4.2.6.5.9.9 1 .2 0 .5 0 .7-.1s.4-.2.6-.4c.6-.6 1-1.5 1.1-2.4.1-.4.1-.8.1-1.2a3.08 3.08 0 0 0-.3-1.3z" fill="#7a8898"/></svg>