<svg xmlns="http://www.w3.org/2000/svg" height="64" width="84" viewBox="0 0 100 80"><path d="M0 0h100v80H0z" fill="#fff"/><path d="M38.1 52h23.8c.7 0 1.1-.6 1.1-1.1V29.2c0-.7-.6-1.1-1.1-1.1H38.1c-.7 0-1.1.6-1.1 1.1v21.6c-.1.6.5 1.2 1.1 1.2z" fill="#8796a1"/><path d="M19.8 46.7h13.3c.4 0 .6-.3.6-.6V34c0-.4-.3-.6-.6-.6H19.8c-.4 0-.6.3-.6.6v12c0 .4.3.7.6.7zm47.1 0h13.3c.4 0 .6-.3.6-.6V34c0-.4-.3-.6-.6-.6H66.9c-.4 0-.6.3-.6.6v12c0 .4.3.7.6.7z" fill="#bbc2c7"/><path d="M89.4 39.4L86 36c-.1-.1-.4-.1-.5 0l-.6.6c-.1.1-.1.4 0 .5l2.7 2.7c.1.1.1.4 0 .5L84.9 43c-.1.1-.1.4 0 .5l.6.6c.1.1.4.1.5 0l3.4-3.4.6-.7-.6-.6zm-74.2-2.2c.2-.2.2-.4 0-.6l-.6-.6a.37.37 0 0 0-.6 0l-3.4 3.4-.6.6.6.6L14 44a.37.37 0 0 0 .6 0l.5-.5c.2-.2.2-.4 0-.6l-2.5-2.5c-.2-.2-.2-.4 0-.6l2.6-2.6z" fill="#8796a1"/></svg>