<svg xmlns="http://www.w3.org/2000/svg" height="64" width="84" viewBox="0 0 100 80"><path d="M0 0h100v80H0z" fill="#fff"/><path d="M34.1 31.5H17c-.5 0-.8.4-.8.8v15.5c0 .5.4.9.8.9h17.1c.5 0 .8-.4.8-.8V32.3c0-.5-.4-.8-.8-.8zm-20.8.8v15.6c0 .4-.3.8-.8.8H7.7V31.5h4.9c.3 0 .7.3.7.8zm42.3-.8H38.5c-.5 0-.8.4-.8.8v15.5c0 .5.4.9.8.9h17.1c.5 0 .8-.4.8-.8V32.3c0-.5-.4-.8-.8-.8zm21.5 0H60c-.5 0-.8.4-.8.8v15.5c0 .5.4.9.8.9h17.1c.5 0 .8-.4.8-.8V32.3c0-.5-.4-.8-.8-.8zm15.2 0v17.2H81.6c-.4 0-.8-.4-.8-.9V32.3c0-.4.3-.8.8-.8h10.7zm-57.1-2.9c.2.2.4.3.6.3s.4-.1.6-.3c.3-.3.3-.9 0-1.2L35 25.9h21.3c.5 0 .9-.4.9-.9s-.4-.9-.9-.9H35l1.4-1.4c.3-.3.3-.9 0-1.2s-.9-.3-1.2 0l-2.9 2.9c-.3.3-.3.9 0 1.2l2.9 3zm27.7-3.5c0-.5-.4-.9-.9-.9h-2.6c-.5 0-.9.4-.9.9s.4.9.9.9H62c.5-.1.9-.5.9-.9zm3.4.8h.8c.5 0 .9-.4.9-.9s-.4-.9-.9-.9h-.8c-.5 0-.9.4-.9.9s.4.9.9.9z" fill="#8796a1"/></svg>